<svg width="88" height="101" viewBox="0 0 88 101" fill="none" xmlns="http://www.w3.org/2000/svg">
<path d="M44 11L71.9 20.96L67.646 57.89L44 71L20.354 57.89L16.1 20.96L44 11ZM44 17.63L26.558 56.78H33.062L36.569 48.02H51.371L54.881 56.78H61.382L44 17.63ZM49.094 42.62H38.906L44 30.35L49.094 42.62Z" fill="white"/>
<path d="M18.484 94.016H14.292L13.62 96H10.756L14.82 84.768H17.988L22.052 96H19.156L18.484 94.016ZM17.78 91.904L16.388 87.792L15.012 91.904H17.78ZM28.7289 86.976C29.7742 86.976 30.6062 87.3173 31.2249 88C31.8542 88.672 32.1689 89.6 32.1689 90.784V96H29.4489V91.152C29.4489 90.5547 29.2942 90.0907 28.9849 89.76C28.6755 89.4293 28.2595 89.264 27.7369 89.264C27.2142 89.264 26.7982 89.4293 26.4889 89.76C26.1795 90.0907 26.0249 90.5547 26.0249 91.152V96H23.2889V87.072H26.0249V88.256C26.3022 87.8613 26.6755 87.552 27.1449 87.328C27.6142 87.0933 28.1422 86.976 28.7289 86.976ZM37.4621 86.944C38.0915 86.944 38.6408 87.072 39.1101 87.328C39.5901 87.584 39.9581 87.92 40.2141 88.336V87.072H42.9501V95.984C42.9501 96.8053 42.7848 97.5467 42.4541 98.208C42.1341 98.88 41.6381 99.4133 40.9661 99.808C40.3048 100.203 39.4781 100.4 38.4861 100.4C37.1635 100.4 36.0915 100.085 35.2701 99.456C34.4488 98.8373 33.9795 97.9947 33.8621 96.928H36.5661C36.6515 97.2693 36.8541 97.536 37.1741 97.728C37.4941 97.9307 37.8888 98.032 38.3581 98.032C38.9235 98.032 39.3715 97.8667 39.7021 97.536C40.0435 97.216 40.2141 96.6987 40.2141 95.984V94.72C39.9475 95.136 39.5795 95.4773 39.1101 95.744C38.6408 96 38.0915 96.128 37.4621 96.128C36.7261 96.128 36.0595 95.9413 35.4621 95.568C34.8648 95.184 34.3901 94.6453 34.0381 93.952C33.6968 93.248 33.5261 92.4373 33.5261 91.52C33.5261 90.6027 33.6968 89.7973 34.0381 89.104C34.3901 88.4107 34.8648 87.8773 35.4621 87.504C36.0595 87.1307 36.7261 86.944 37.4621 86.944ZM40.2141 91.536C40.2141 90.8533 40.0221 90.3147 39.6381 89.92C39.2648 89.5253 38.8061 89.328 38.2621 89.328C37.7181 89.328 37.2541 89.5253 36.8701 89.92C36.4968 90.304 36.3101 90.8373 36.3101 91.52C36.3101 92.2027 36.4968 92.7467 36.8701 93.152C37.2541 93.5467 37.7181 93.744 38.2621 93.744C38.8061 93.744 39.2648 93.5467 39.6381 93.152C40.0221 92.7573 40.2141 92.2187 40.2141 91.536ZM53.7455 87.072V96H51.0095V94.784C50.7322 95.1787 50.3535 95.4987 49.8735 95.744C49.4042 95.9787 48.8815 96.096 48.3055 96.096C47.6228 96.096 47.0202 95.9467 46.4975 95.648C45.9748 95.3387 45.5695 94.896 45.2815 94.32C44.9935 93.744 44.8495 93.0667 44.8495 92.288V87.072H47.5695V91.92C47.5695 92.5173 47.7242 92.9813 48.0335 93.312C48.3428 93.6427 48.7588 93.808 49.2815 93.808C49.8148 93.808 50.2362 93.6427 50.5455 93.312C50.8548 92.9813 51.0095 92.5173 51.0095 91.92V87.072H53.7455ZM58.4468 84.16V96H55.7108V84.16H58.4468ZM59.8855 91.52C59.8855 90.6027 60.0562 89.7973 60.3975 89.104C60.7495 88.4107 61.2242 87.8773 61.8215 87.504C62.4188 87.1307 63.0855 86.944 63.8215 86.944C64.4508 86.944 65.0002 87.072 65.4695 87.328C65.9495 87.584 66.3175 87.92 66.5735 88.336V87.072H69.3095V96H66.5735V94.736C66.3068 95.152 65.9335 95.488 65.4535 95.744C64.9842 96 64.4348 96.128 63.8055 96.128C63.0802 96.128 62.4188 95.9413 61.8215 95.568C61.2242 95.184 60.7495 94.6453 60.3975 93.952C60.0562 93.248 59.8855 92.4373 59.8855 91.52ZM66.5735 91.536C66.5735 90.8533 66.3815 90.3147 65.9975 89.92C65.6242 89.5253 65.1655 89.328 64.6215 89.328C64.0775 89.328 63.6135 89.5253 63.2295 89.92C62.8562 90.304 62.6695 90.8373 62.6695 91.52C62.6695 92.2027 62.8562 92.7467 63.2295 93.152C63.6135 93.5467 64.0775 93.744 64.6215 93.744C65.1655 93.744 65.6242 93.5467 65.9975 93.152C66.3815 92.7573 66.5735 92.2187 66.5735 91.536ZM74.0249 88.56C74.3449 88.0693 74.7449 87.6853 75.2249 87.408C75.7049 87.12 76.2382 86.976 76.8249 86.976V89.872H76.0729C75.3902 89.872 74.8782 90.0213 74.5369 90.32C74.1955 90.608 74.0249 91.12 74.0249 91.856V96H71.2889V87.072H74.0249V88.56Z" fill="white"/>
</svg>
