<svg width="88" height="101" viewBox="0 0 88 101" fill="none" xmlns="http://www.w3.org/2000/svg">
<path d="M17.5116 11.5106C17.5116 11.7432 17.501 11.9018 17.5116 12.0603C17.9137 16.4585 18.3157 20.8567 18.7073 25.2655C19.2575 31.5033 19.7972 37.7411 20.3474 43.9684C20.9717 50.9674 21.6066 57.9559 22.2097 64.9549C22.2521 65.4624 22.432 65.6844 22.9081 65.8113C29.6803 67.6721 36.4313 69.5434 43.2034 71.3936C43.6585 71.5205 44.2087 71.5416 44.6637 71.4148C51.457 69.554 58.2398 67.6615 65.0331 65.7902C65.5516 65.6421 65.7315 65.4095 65.7738 64.8809C65.9854 62.2378 66.2394 59.5841 66.4722 56.9409C66.8637 52.5639 67.2446 48.1868 67.6361 43.8098C68.0911 38.6715 68.5567 33.5438 69.0117 28.4055C69.3503 24.5783 69.7101 20.7616 70.0487 16.9343C70.2074 15.137 70.345 13.3396 70.4931 11.5H17.5116V11.5106ZM60.2714 26.7774C59.9222 30.6469 59.573 34.5271 59.2238 38.3966C58.8217 42.8477 58.4196 47.2987 58.0175 51.7392C57.9012 53.0185 57.7318 54.2978 57.7001 55.5876C57.6789 56.2748 57.3827 56.4546 56.8113 56.6132C52.7268 57.7127 48.6529 58.844 44.579 59.9647C44.3992 60.0175 44.2299 60.081 44.05 60.1338C43.9865 60.1021 43.923 60.081 43.8489 60.0492C39.4893 58.8651 35.1298 57.6704 30.7702 56.4651C30.5903 56.4123 30.3575 56.1268 30.3363 55.9259C30.0295 52.6273 29.7544 49.3287 29.4581 45.9666H36.1138C36.2302 47.2882 36.3572 48.6309 36.463 49.9842C36.5583 51.2317 36.5477 51.2317 37.7222 51.5489C39.8279 52.1092 41.9442 52.659 44.05 53.2088L44.0288 53.1559C46.3356 52.5427 48.6423 51.9401 50.9491 51.2846C51.1607 51.2212 51.4041 50.8828 51.4359 50.6502C51.5734 49.6353 51.6475 48.6097 51.7321 47.5948C51.8697 45.956 52.0073 44.3173 52.1554 42.6045H44.0288L44.05 42.5622C43.9971 42.5622 43.9336 42.5622 43.8807 42.5622H29.1512C28.9502 40.3737 28.7597 38.2063 28.5586 35.9755H43.8912C43.9442 35.9755 44.0076 35.9755 44.0605 35.9755L44.0394 35.9332H52.748C52.949 33.6601 53.1501 31.4399 53.3511 29.1773H44.0288L44.05 29.135C43.9971 29.135 43.9336 29.135 43.8807 29.135C38.664 29.1456 33.4473 29.1456 28.2306 29.1562C28.1565 29.1562 28.0825 29.1245 27.9449 29.0822C27.7544 26.9254 27.5534 24.7686 27.3629 22.5483H43.8807C43.9336 22.5483 43.9971 22.5483 44.05 22.5483L44.0288 22.506H60.6206C60.5042 23.9862 60.3878 25.3818 60.2714 26.7774Z" fill="white"/>
<path d="M28.528 90.868C28.528 89.7587 28.768 88.772 29.248 87.908C29.728 87.0333 30.3947 86.356 31.248 85.876C32.112 85.3853 33.088 85.14 34.176 85.14C35.5093 85.14 36.6507 85.492 37.6 86.196C38.5493 86.9 39.184 87.86 39.504 89.076H36.496C36.272 88.6067 35.952 88.2493 35.536 88.004C35.1307 87.7587 34.6667 87.636 34.144 87.636C33.3013 87.636 32.6187 87.9293 32.096 88.516C31.5733 89.1027 31.312 89.8867 31.312 90.868C31.312 91.8493 31.5733 92.6333 32.096 93.22C32.6187 93.8067 33.3013 94.1 34.144 94.1C34.6667 94.1 35.1307 93.9773 35.536 93.732C35.952 93.4867 36.272 93.1293 36.496 92.66H39.504C39.184 93.876 38.5493 94.836 37.6 95.54C36.6507 96.2333 35.5093 96.58 34.176 96.58C33.088 96.58 32.112 96.34 31.248 95.86C30.3947 95.3693 29.728 94.692 29.248 93.828C28.768 92.964 28.528 91.9773 28.528 90.868ZM45.2435 96.612C44.4222 96.612 43.6862 96.4787 43.0355 96.212C42.3848 95.9453 41.8622 95.5507 41.4675 95.028C41.0835 94.5053 40.8808 93.876 40.8595 93.14H43.7715C43.8142 93.556 43.9582 93.876 44.2035 94.1C44.4488 94.3133 44.7688 94.42 45.1635 94.42C45.5688 94.42 45.8888 94.3293 46.1235 94.148C46.3582 93.956 46.4755 93.6947 46.4755 93.364C46.4755 93.0867 46.3795 92.8573 46.1875 92.676C46.0062 92.4947 45.7768 92.3453 45.4995 92.228C45.2328 92.1107 44.8488 91.9773 44.3475 91.828C43.6222 91.604 43.0302 91.38 42.5715 91.156C42.1128 90.932 41.7182 90.6013 41.3875 90.164C41.0568 89.7267 40.8915 89.156 40.8915 88.452C40.8915 87.4067 41.2702 86.5907 42.0275 86.004C42.7848 85.4067 43.7715 85.108 44.9875 85.108C46.2248 85.108 47.2222 85.4067 47.9795 86.004C48.7368 86.5907 49.1422 87.412 49.1955 88.468H46.2355C46.2142 88.1053 46.0808 87.8227 45.8355 87.62C45.5902 87.4067 45.2755 87.3 44.8915 87.3C44.5608 87.3 44.2942 87.3907 44.0915 87.572C43.8888 87.7427 43.7875 87.9933 43.7875 88.324C43.7875 88.6867 43.9582 88.9693 44.2995 89.172C44.6408 89.3747 45.1742 89.5933 45.8995 89.828C46.6248 90.0733 47.2115 90.308 47.6595 90.532C48.1182 90.756 48.5128 91.0813 48.8435 91.508C49.1742 91.9347 49.3395 92.484 49.3395 93.156C49.3395 93.796 49.1742 94.3773 48.8435 94.9C48.5235 95.4227 48.0542 95.8387 47.4355 96.148C46.8168 96.4573 46.0862 96.612 45.2435 96.612ZM55.0873 96.612C54.2659 96.612 53.5299 96.4787 52.8793 96.212C52.2286 95.9453 51.7059 95.5507 51.3113 95.028C50.9273 94.5053 50.7246 93.876 50.7033 93.14H53.6153C53.6579 93.556 53.8019 93.876 54.0473 94.1C54.2926 94.3133 54.6126 94.42 55.0073 94.42C55.4126 94.42 55.7326 94.3293 55.9673 94.148C56.2019 93.956 56.3193 93.6947 56.3193 93.364C56.3193 93.0867 56.2233 92.8573 56.0313 92.676C55.8499 92.4947 55.6206 92.3453 55.3433 92.228C55.0766 92.1107 54.6926 91.9773 54.1913 91.828C53.4659 91.604 52.8739 91.38 52.4153 91.156C51.9566 90.932 51.5619 90.6013 51.2313 90.164C50.9006 89.7267 50.7353 89.156 50.7353 88.452C50.7353 87.4067 51.1139 86.5907 51.8713 86.004C52.6286 85.4067 53.6153 85.108 54.8313 85.108C56.0686 85.108 57.0659 85.4067 57.8233 86.004C58.5806 86.5907 58.9859 87.412 59.0393 88.468H56.0793C56.0579 88.1053 55.9246 87.8227 55.6793 87.62C55.4339 87.4067 55.1193 87.3 54.7352 87.3C54.4046 87.3 54.1379 87.3907 53.9353 87.572C53.7326 87.7427 53.6313 87.9933 53.6313 88.324C53.6313 88.6867 53.8019 88.9693 54.1432 89.172C54.4846 89.3747 55.0179 89.5933 55.7433 89.828C56.4686 90.0733 57.0553 90.308 57.5033 90.532C57.9619 90.756 58.3566 91.0813 58.6873 91.508C59.0179 91.9347 59.1833 92.484 59.1833 93.156C59.1833 93.796 59.0179 94.3773 58.6873 94.9C58.3673 95.4227 57.8979 95.8387 57.2793 96.148C56.6606 96.4573 55.9299 96.612 55.0873 96.612Z" fill="white"/>
</svg>
