<?xml version="1.0" encoding="UTF-8"?>
<svg width="199.03" height="203.19" viewBox="0 0 9.9513184 10.159361" xmlns="http://www.w3.org/2000/svg" xmlns:xlink="http://www.w3.org/1999/xlink">
 <defs>
  <clipPath id="f">
   <path transform="matrix(.0488 0 0 .0488 1.2421 -1.9747)" d="m889.24 347.81a300 300 0 1 1 -600 0 300 300 0 1 1 600 0z"/>
  </clipPath>
  <clipPath id="b">
   <path d="m30 15h30v15zv15h-30zh-30v-15zv-15h30z"/>
  </clipPath>
  <linearGradient id="a">
   <stop stop-color="#eee" offset="0"/>
   <stop stop-color="#eee" stop-opacity="0" offset="1"/>
  </linearGradient>
  <linearGradient id="e" x1="571.31" x2="569.52" y1="798.41" y2="708.76" gradientUnits="userSpaceOnUse" xlink:href="#a"/>
  <radialGradient id="d" cx="691.64" cy="89.207" r="300" gradientTransform="matrix(.35888 1.1741 -.97801 .28683 388.55 -507.21)" gradientUnits="userSpaceOnUse">
   <stop stop-color="#ededed" offset="0"/>
   <stop stop-color="#ededed" offset="1"/>
  </radialGradient>
  <radialGradient id="c" cx="598.69" cy="67.812" r="300" gradientTransform="matrix(-.03275 2.0104 -1.0397 -.01694 667.4 -1016)" gradientUnits="userSpaceOnUse" xlink:href="#a"/>
 </defs>
 <path transform="matrix(.01659 0 0 .01693 -4.7972 -.80951)" d="m889.24 347.81c0 165.69-134.31 300-300 300s-300-134.31-300-300 134.31-300 300-300 300 134.31 300 300z" fill="url(#d)"/>
 <g transform="matrix(.32611 0 0 .32611 -4.8008 .17554)" clip-path="url(#f)">
  <path d="m0 0v30h60v-30z" fill="#00247d"/>
  <path d="m0 0 60 30m0-30-60 30" stroke="#fff" stroke-width="6"/>
  <path d="m0 0 60 30m0-30-60 30" clip-path="url(#b)" stroke="#cf142b" stroke-width="4"/>
  <path d="m30 0v30m-30-15h60" stroke="#fff" stroke-width="10"/>
  <path d="m30 0v30m-30-15h60" stroke="#cf142b" stroke-width="6"/>
 </g>
 <path transform="matrix(.01451 0 0 .01451 -3.294 -1.8897)" d="m567.47 165.66c-167.69 0-304.48 132.33-311.66 298.25 138.2 56.192 349.49 93.013 623.06-4.5625-9.4553-163.79-145.25-293.69-311.41-293.69z" fill="url(#c)"/>
 <path transform="matrix(.01451 0 0 .01451 -3.294 -1.8897)" d="m698.01 749.4c0 22.443-57.525 40.637-128.49 40.637s-128.49-18.194-128.49-40.637 57.525-40.637 128.49-40.637 128.49 18.194 128.49 40.637z" fill="url(#e)" opacity=".63556"/>
</svg>
