<svg width="88" height="101" viewBox="0 0 88 101" fill="none" xmlns="http://www.w3.org/2000/svg">
<path d="M23.6492 50.6719L29.5806 12.6632C29.7851 11.3679 31.5236 11.0611 32.1372 12.2201L38.5117 24.1511L23.6492 50.6719ZM65.8166 59.9099L60.1579 24.901C59.9875 23.8102 58.624 23.367 57.8399 24.1511L22.1833 59.9099L41.9206 70.9887C43.1478 71.6704 44.6818 71.6704 45.909 70.9887L65.8166 59.9099ZM49.795 29.3666L45.2272 20.674C44.7159 19.6855 43.3182 19.6855 42.8069 20.674L22.7288 56.467L49.795 29.3666Z" fill="white"/>
<path d="M16.804 85.268V87.46H12.228V89.828H15.652V91.956H12.228V96.5H9.492V85.268H16.804ZM19.618 86.644C19.138 86.644 18.7433 86.5053 18.434 86.228C18.1353 85.94 17.986 85.588 17.986 85.172C17.986 84.7453 18.1353 84.3933 18.434 84.116C18.7433 83.828 19.138 83.684 19.618 83.684C20.0873 83.684 20.4713 83.828 20.77 84.116C21.0793 84.3933 21.234 84.7453 21.234 85.172C21.234 85.588 21.0793 85.94 20.77 86.228C20.4713 86.5053 20.0873 86.644 19.618 86.644ZM20.978 87.572V96.5H18.242V87.572H20.978ZM25.6968 89.06C26.0168 88.5693 26.4168 88.1853 26.8968 87.908C27.3768 87.62 27.9101 87.476 28.4968 87.476V90.372H27.7448C27.0621 90.372 26.5501 90.5213 26.2088 90.82C25.8674 91.108 25.6968 91.62 25.6968 92.356V96.5H22.9608V87.572H25.6968V89.06ZM38.2205 91.892C38.2205 92.148 38.2045 92.4147 38.1725 92.692H31.9805C32.0232 93.2467 32.1992 93.6733 32.5085 93.972C32.8285 94.26 33.2178 94.404 33.6765 94.404C34.3592 94.404 34.8338 94.116 35.1005 93.54H38.0125C37.8632 94.1267 37.5912 94.6547 37.1965 95.124C36.8125 95.5933 36.3272 95.9613 35.7405 96.228C35.1538 96.4947 34.4978 96.628 33.7725 96.628C32.8978 96.628 32.1192 96.4413 31.4365 96.068C30.7538 95.6947 30.2205 95.1613 29.8365 94.468C29.4525 93.7747 29.2605 92.964 29.2605 92.036C29.2605 91.108 29.4472 90.2973 29.8205 89.604C30.2045 88.9107 30.7378 88.3773 31.4205 88.004C32.1032 87.6307 32.8872 87.444 33.7725 87.444C34.6365 87.444 35.4045 87.6253 36.0765 87.988C36.7485 88.3507 37.2712 88.868 37.6445 89.54C38.0285 90.212 38.2205 90.996 38.2205 91.892ZM35.4205 91.172C35.4205 90.7027 35.2605 90.3293 34.9405 90.052C34.6205 89.7747 34.2205 89.636 33.7405 89.636C33.2818 89.636 32.8925 89.7693 32.5725 90.036C32.2632 90.3027 32.0712 90.6813 31.9965 91.172H35.4205ZM42.3999 88.836C42.6559 88.42 43.0239 88.084 43.5039 87.828C43.9839 87.572 44.5332 87.444 45.1519 87.444C45.8879 87.444 46.5545 87.6307 47.1519 88.004C47.7492 88.3773 48.2185 88.9107 48.5599 89.604C48.9119 90.2973 49.0879 91.1027 49.0879 92.02C49.0879 92.9373 48.9119 93.748 48.5599 94.452C48.2185 95.1453 47.7492 95.684 47.1519 96.068C46.5545 96.4413 45.8879 96.628 45.1519 96.628C44.5225 96.628 43.9732 96.5053 43.5039 96.26C43.0345 96.004 42.6665 95.668 42.3999 95.252V96.5H39.6639V84.66H42.3999V88.836ZM46.3039 92.02C46.3039 91.3373 46.1119 90.804 45.7279 90.42C45.3545 90.0253 44.8905 89.828 44.3359 89.828C43.7919 89.828 43.3279 90.0253 42.9439 90.42C42.5705 90.8147 42.3839 91.3533 42.3839 92.036C42.3839 92.7187 42.5705 93.2573 42.9439 93.652C43.3279 94.0467 43.7919 94.244 44.3359 94.244C44.8799 94.244 45.3439 94.0467 45.7279 93.652C46.1119 93.2467 46.3039 92.7027 46.3039 92.02ZM49.9793 92.02C49.9793 91.1027 50.1499 90.2973 50.4913 89.604C50.8433 88.9107 51.3179 88.3773 51.9153 88.004C52.5126 87.6307 53.1793 87.444 53.9153 87.444C54.5446 87.444 55.0939 87.572 55.5633 87.828C56.0433 88.084 56.4113 88.42 56.6673 88.836V87.572H59.4033V96.5H56.6673V95.236C56.4006 95.652 56.0273 95.988 55.5473 96.244C55.0779 96.5 54.5286 96.628 53.8993 96.628C53.1739 96.628 52.5126 96.4413 51.9153 96.068C51.3179 95.684 50.8433 95.1453 50.4913 94.452C50.1499 93.748 49.9793 92.9373 49.9793 92.02ZM56.6673 92.036C56.6673 91.3533 56.4753 90.8147 56.0913 90.42C55.7179 90.0253 55.2593 89.828 54.7153 89.828C54.1713 89.828 53.7073 90.0253 53.3233 90.42C52.9499 90.804 52.7633 91.3373 52.7633 92.02C52.7633 92.7027 52.9499 93.2467 53.3233 93.652C53.7073 94.0467 54.1713 94.244 54.7153 94.244C55.2593 94.244 55.7179 94.0467 56.0913 93.652C56.4753 93.2573 56.6673 92.7187 56.6673 92.036ZM65.0146 96.628C64.236 96.628 63.5426 96.4947 62.9346 96.228C62.3266 95.9613 61.8466 95.5987 61.4946 95.14C61.1426 94.6707 60.9453 94.148 60.9026 93.572H63.6066C63.6386 93.8813 63.7826 94.132 64.0386 94.324C64.2946 94.516 64.6093 94.612 64.9826 94.612C65.324 94.612 65.5853 94.548 65.7666 94.42C65.9586 94.2813 66.0546 94.1053 66.0546 93.892C66.0546 93.636 65.9213 93.4493 65.6546 93.332C65.388 93.204 64.956 93.0653 64.3586 92.916C63.7186 92.7667 63.1853 92.612 62.7586 92.452C62.332 92.2813 61.964 92.02 61.6546 91.668C61.3453 91.3053 61.1906 90.82 61.1906 90.212C61.1906 89.7 61.3293 89.236 61.6066 88.82C61.8946 88.3933 62.3106 88.0573 62.8546 87.812C63.4093 87.5667 64.0653 87.444 64.8226 87.444C65.9426 87.444 66.8226 87.7213 67.4626 88.276C68.1133 88.8307 68.4866 89.5667 68.5826 90.484H66.0546C66.012 90.1747 65.8733 89.9293 65.6386 89.748C65.4146 89.5667 65.116 89.476 64.7426 89.476C64.4226 89.476 64.1773 89.54 64.0066 89.668C63.836 89.7853 63.7506 89.9507 63.7506 90.164C63.7506 90.42 63.884 90.612 64.1506 90.74C64.428 90.868 64.8546 90.996 65.4306 91.124C66.092 91.2947 66.6306 91.4653 67.0466 91.636C67.4626 91.796 67.8253 92.0627 68.1346 92.436C68.4546 92.7987 68.62 93.2893 68.6306 93.908C68.6306 94.4307 68.4813 94.9 68.1826 95.316C67.8946 95.7213 67.4733 96.0413 66.9186 96.276C66.3746 96.5107 65.74 96.628 65.0146 96.628ZM78.7205 91.892C78.7205 92.148 78.7045 92.4147 78.6725 92.692H72.4805C72.5232 93.2467 72.6992 93.6733 73.0085 93.972C73.3285 94.26 73.7178 94.404 74.1765 94.404C74.8592 94.404 75.3338 94.116 75.6005 93.54H78.5125C78.3632 94.1267 78.0912 94.6547 77.6965 95.124C77.3125 95.5933 76.8272 95.9613 76.2405 96.228C75.6538 96.4947 74.9978 96.628 74.2725 96.628C73.3978 96.628 72.6192 96.4413 71.9365 96.068C71.2538 95.6947 70.7205 95.1613 70.3365 94.468C69.9525 93.7747 69.7605 92.964 69.7605 92.036C69.7605 91.108 69.9472 90.2973 70.3205 89.604C70.7045 88.9107 71.2378 88.3773 71.9205 88.004C72.6032 87.6307 73.3872 87.444 74.2725 87.444C75.1365 87.444 75.9045 87.6253 76.5765 87.988C77.2485 88.3507 77.7712 88.868 78.1445 89.54C78.5285 90.212 78.7205 90.996 78.7205 91.892ZM75.9205 91.172C75.9205 90.7027 75.7605 90.3293 75.4405 90.052C75.1205 89.7747 74.7205 89.636 74.2405 89.636C73.7818 89.636 73.3925 89.7693 73.0725 90.036C72.7632 90.3027 72.5712 90.6813 72.4965 91.172H75.9205Z" fill="white"/>
</svg>
