<?xml version='1.0' encoding='utf-8'?>
<svg xmlns="http://www.w3.org/2000/svg" width="148mm" height="105mm" viewBox="0 0 148 105" version="1.1" id="svg24"> <metadata id="metadata30"> </metadata> <defs id="defs28"/> <path d="M126 103a57.8 57.8 0 0 0-11.9-2.8c-1.7-.3-4.2-1.1-6.5-2.2a50 50 0 0 0-14.3-4.3l-8-1.3c-6.3-1.2-7.5-1-11 .7-1.7.8-3.4 1.5-3.8 1.5-.5 0-2.6-.5-4.9-1.1-2.2-.6-5.2-1-6.7-1s-4.6-.6-7-1.2a21.8 21.8 0 0 0-13.8 0c-2 .6-4.3 1.1-5.3 1.1-2 0-18.4-2-19.6-2.4l-4.7-.5-3.9-.3.2-3.4c0-1.8.5-5.2 1.1-7.4 2.2-8.8 4.3-24.5 4.7-35.5.4-10.2-1-21-4.3-30.6-.9-2.7-1.5-5.6-1.6-7.8C4.3.4 4.3.4 8.5 2.1c3.2 1.3 19.3 5.5 30.1 7.8 4.5 1 10.5 2.6 13.4 3.6a205.9 205.9 0 0 0 37 10.3c2 .3 6.5 1.4 10 2.3 3.5.9 8 1.8 9.8 2.1 1.9.3 5.1 1.2 7.2 2l3.9 1.5 5.5-.3c10.4-.6 16-.5 17.6.4 1.1.6 1.3 1 1.1 1.7l-.6 4c-.3 2-.9 4-2 6.3-3.1 6-3.7 9.5-2.4 13a36.1 36.1 0 0 1-1.6 18.4c-1.6 5.6-2.3 9-2.8 13.4-.1 1.3-.6 3.8-1 5.5l-1.3 6c-1 4.8-1.1 5-6.4 3z" fill="#c29c28" id="path2"/> <path d="M128 103a60.7 60.7 0 0 0-12.2-3c-3-.3-7.6-2.1-7.6-2.9 0-.1 1-.4 2.4-.5 3.4-.3 5.6-1.2 9-3.5 3.4-2.4 3.8-3.3 1.8-4.8-2.4-1.8-4.2-2.2-9-2.2-2.7 0-5.1.2-6.1.6-1 .3-4.2.8-7.1 1-5.3.5-9.6 1.6-12.3 3.3-.8.6-1.7.6-5.2.4l-4.3-.3-3.1 1.6c-3.4 1.7-3.9 1.7-8 .2l-1.3-.5 1-.8c.7-.5 1.8-1 2.6-1.3 2.1-.8 4.3-2.5 7.3-5.8l3.9-3.9c1.7-1.5 3.3-4.4 4-7.4.3-2 .3-2.7 0-3-1-.6-2-.3-2.2.5-.3.8-4.1 3.9-4.9 3.9-.2 0-.4.2-.5.5-.2.5-2-.5-2-1.1 0-.8-2.2-2.4-3.2-2.4-1.1 0-4 3-4 4 0 .4.2 1 .4 1.5.5.8.4 1-.7 1.9l-1.3 1 1.2 1c2 1.5 1.2 4-2.3 8L62 91.7h-2.7c-3 0-4.4-.5-3.4-1.1.3-.2 1-.9 1.4-1.5.6-.6.6-.8.2-.5-.4.3-.8.4-.9.3-.1-.1-.6.3-1.1 1l-1 1-3.4-.4c-5.7-.8-9.2-.7-13 .5a13.4 13.4 0 0 1-9.1.4l-3-.7 2.3-.7c3.2-1 5.9-2.6 7.5-4.5 1.9-2.1 2-3.1.8-5.3-.6-1-1.2-2.4-1.4-3-.4-1.4-1.5-2.5-2.6-2.5-.5 0-2 .4-3.3.9-2 .7-2.4 1-2.7 2.1-.2 1.1-.6 1.5-3 2.5-1.9.9-2.8 1.6-3.1 2.4l-1.1 2c-.9 1-.4 2.5 1.2 4.3l1.4 1.6L20 90a260 260 0 0 0-13-1.2c-1.8 0-2-.2-2-1l.4-3.3c.1-1.4.8-4.9 1.5-7.7a80.8 80.8 0 0 0 2.5-15.7c0-1.3.3-4.9.7-7.8 1-7.6 1-20.5 0-25.2-1.6-8-2.6-11.9-3.9-16.1C4.8 7.2 4.1 1.5 5 1a584.2 584.2 0 0 0 38.6 10c4 1 9.4 2.6 11.8 3.6A163.1 163.1 0 0 0 89.7 24c2.5.4 6.8 1.4 9.3 2.1 2.6.8 6.6 1.6 9 2 2.5.3 5.4 1.1 7.2 1.9 3.7 1.5 8 2.1 11.7 1.6 5.9-.9 12-1 14.6-.2 2.2.6 2.6 1 2.4 2l-.5 3.9a19 19 0 0 1-2.2 7c-1 2-2.2 5.1-2.6 6.9-.6 3-.6 3.3 0 5 1.6 4.6 1.2 9.1-1.3 18a78.6 78.6 0 0 0-3 14 34.2 34.2 0 0 1-3.6 12c-.8.7-.8.8-.2 1.8.7 1 .6 2-.1 1.9l-2.5-.9zM63.2 84.8c.7-.6.4-1.6-.5-1.6-1 0-2.3 1-2.3 1.8 0 .7 1.9.5 2.8-.2z" fill="#b99525" id="path4"/> <path d="M128.4 102.8a94 94 0 0 0-13.3-3.1c-1.4 0-3.9-.8-4.7-1.5-.5-.3.2-.6 2.7-1 8.2-1.3 15.3-7.3 14.8-12.4l-.1-2.3c-.1-1-3.3.4-3.6 1.5-.3 1.2-2.2 1-3.1-.3-2.9-4.1-5.3-5.7-8.4-5.7-1.5 0-2 .1-2.2.8-.1.5-.9 1.3-1.6 1.8l-2.7 2c-2.2 2-6.8 3.9-10.8 4.6a24 24 0 0 0-7.5 2.5c-3.8 2-3.9 2-6.1 1.5-2.8-.6-4.7-.3-7.6 1.3-2.5 1.3-3.8 1.5-6 .7-1.6-.5-1.2-1.3 1.2-2 2.4-.8 4.3-2.2 8.6-6.3 10.9-10.3 13.6-13.4 12.2-14.2-1.1-.7-5-1.3-10.5-1.7-3.2-.2-6.8-.6-8.1-1a24 24 0 0 0-7.1-.7c-.9 0-1 .3-1 2.5 0 2.6-.4 4.7-1.4 8.8-.5 1.8-1 2.8-2 3.8-.9.7-1.8 1.7-2.1 2.2l-3.2 3-2.6 2.3-4.8-.2a18 18 0 0 0-8.5.8c-3.5 1-7 1.3-8.7.7-.5-.2 0-.6 2.2-1.6 3.7-1.8 7.9-5.3 8.8-7.3a20 20 0 0 1 1.7-3 5 5 0 0 0 1-2.3c0-1-1.3-2.9-2-2.9-.3 0-1-.2-1.7-.6-1-.5-1.4-1.2-2.4-4.5-.8-2.6-1.5-4-2-4.3-.5-.2-2.5-.5-4.5-.7-3.2-.2-3.5-.1-3.5.6 0 .5-.4 2.3-1 4a11 11 0 0 1-3.5 5.9c-5.6 5.8-8 9.3-7.6 10.8.2.5.6 1.2.9 1.5.3.3.6 1 .6 1.6v1.1l-3.8-.3-5.8-.3c-2 0-2.1-.1-2-1.1.2-4.1.8-7.3 2-12.2 1.5-5.7 1.8-6.1 4.6-7.7.8-.4 1.3-.5 1.5-.2.7 1.2 6.3-3 5.9-4.3-.2-.7-2.2-1-6.3-1.4-4-.3-4-.3-3.1-7 .3-2.7.7-8.7.9-13.3.2-6.8.1-8.9-.5-11.2l-1.1-5.7C8.9 21 7.5 16 6 11.4 4.8 7.1 4.1 1.5 5 1.2a584.2 584.2 0 0 0 38.6 10c4 1 9.4 2.5 11.8 3.5A163.1 163.1 0 0 0 89.7 24c2.5.4 6.8 1.4 9.3 2.1 2.6.8 6.6 1.6 9 2 2.5.3 5.4 1.1 7.2 1.9 3.7 1.5 8 2.1 11.7 1.6 5.9-.9 12-1 14.6-.2 2.2.6 2.6 1 2.4 2l-.5 3.9a19 19 0 0 1-2.2 7c-1 2-2.2 5.2-2.6 7-.7 3-.7 3.4 0 5.4 1.2 3.7.7 10.3-1.4 17.4-2 6.8-2.6 9.3-3.1 13.8-.2 2-.8 4.8-1.3 6.5-.9 3-1 3.2-3 4.4-2.4 1.5-2.7 2.6-.8 3.6l1.3.9-.1.2-1.8-.7zm-71-11.5c-.5-.8 3-4 5-4.9l2.5-.8c.8 0 .1 1.3-1.7 3.3-1.6 1.7-2.4 2.2-3.8 2.5-1 .1-1.9 0-2-.1z" fill="#ad8a17" id="path6"/> <path d="M118.2 100.2a957 957 0 0 1-4.4-.8c-1.7-.3-1-.8 1.8-1.3 5-1 11.8-5 14.4-8.6 1.5-2 3.3-7.2 3.3-9.4 0-1-2.4-1.9-7.3-2.8-2-.3-5-1.1-6.6-1.7-4-1.5-9-2.6-13.1-3-2-.1-7.4-1-12.2-1.9a196 196 0 0 0-21-3c-4.3-.9-9-1.2-12.5-.8-2.3.3-4 .3-5 0-1-.2-4.5-.7-8-1-3.5-.4-8.3-1-10.7-1.5-2.3-.4-6.2-1-8.7-1.1-2.4-.2-5.9-.5-7.7-.9a90 90 0 0 0-6.4-.8c-4.9-.5-4.8-.3-4-6.4.4-2.8.8-8.9 1-13.5.2-6.8.1-8.9-.5-11.2l-1.1-5.7C8.9 21 7.5 16 6 11.4 4.8 7.1 4.1 1.5 5 1.2a584.2 584.2 0 0 0 38.6 10c4 1 9.4 2.5 11.8 3.5A163.1 163.1 0 0 0 89.7 24c2.5.4 6.8 1.4 9.3 2.1 2.6.8 6.6 1.6 9 2 2.5.3 5.4 1.1 7.2 1.9 3.7 1.5 8 2.1 11.7 1.6 5.9-.9 12-1 14.6-.2 2.2.6 2.6 1 2.4 2l-.5 3.9a19 19 0 0 1-2.2 7c-1 2-2.2 5.2-2.6 7-.7 3-.7 3.4 0 5.4 1.2 3.6.7 10.4-1.2 16.8-.9 2.8-1.7 5.5-2 6-.3.8-1 4.4-1.5 9.1-.2 1.3-.7 3.3-1.1 4.6-.7 1.9-1.2 2.4-3.5 3.8a24 24 0 0 0-3.7 2.8c-1.2 1.3-2.2 1.4-7.4.4zm-48.5-6.9c-.1-.2 1.1-1.1 2.7-2.1 1.7-1 4.3-2.9 5.9-4.2A60.6 60.6 0 0 1 98 74.6c3.4-1.8 4.8-2 5.4-.9 1.7 3.4 1.6 4-.7 6.7-1.7 2-4 3.5-9 5.7-2 .9-5 2.5-6.9 3.5-3.3 2-3.3 2-5.5 1.5-2.6-.5-5.1 0-7.9 1.6-1.8 1-3.4 1.3-3.8.6zM33 91.2c0-.3 1-1 2.2-1.6 4.2-2.1 8.3-5.2 11-8.3l4-4.4a66 66 0 0 0 6.6-8.7c0-.2.3-.4.7-.4 1.2 0 1.6 2 1 6.1-.7 6.2-.9 7-1.7 7.7-.5.4-.8 1-.8 1.3 0 .6-3.3 4-5.5 5.6-1 .8-1.8 1-5 1-2.6 0-4.4.2-6.8 1-3.4 1.1-5.7 1.4-5.7.7zm-26.2-3c.4-.6 2.6-1 3.6-.7 1.7.6.9 1.1-1.5 1.1-1.3 0-2.2-.2-2-.4z" fill="#987010" id="path8"/> <path d="M129.9 77.7L120 75A138 138 0 0 0 93.9 70l-20.4-2.8c-3.5-.5-10.1-1-14.7-1.3-4.5-.2-10.5-.6-13.1-1a2137.1 2137.1 0 0 0-36-4.6c-.2-.1 0-2.5.4-5.2.4-2.8.8-8.9 1-13.5.2-6.8.1-8.9-.5-11.2l-1.1-5.7C8.9 21 7.5 16 6 11.4 4.8 7.1 4.1 1.5 5 1.2a584.2 584.2 0 0 0 38.6 10c4 1 9.4 2.5 11.8 3.5A163.1 163.1 0 0 0 89.7 24c2.5.4 6.8 1.4 9.3 2.1 2.6.8 6.6 1.6 9 2 2.5.3 5.4 1.1 7.2 1.9 3.7 1.5 8 2.1 11.7 1.6 5.9-.9 12-1 14.6-.2 2.2.6 2.6 1 2.4 2l-.5 3.9a19 19 0 0 1-2.2 7c-1 2-2.2 5.2-2.6 7-.7 3-.7 3.4 0 5.4 1 3 .7 10.5-.6 14.5l-1.5 5.2c-.8 2.8-.6 2.8-6.6 1.3z" fill="#5d5c5c" id="path10"/> <path d="M129.9 77.7L120 75A138 138 0 0 0 93.9 70l-20.4-2.8c-3.5-.5-10.1-1-14.7-1.3-4.5-.2-10.5-.6-13.1-1a2137.1 2137.1 0 0 0-36-4.6c-.2-.1.1-2.6.5-5.4.6-4 .7-8.1.7-16.6 0-12.6-.3-15.2-3.4-24.8A43.1 43.1 0 0 1 5.5 2a184.2 184.2 0 0 0 16.9 4.8l18.4 4.4a163.1 163.1 0 0 1 22.5 7 189 189 0 0 0 25 6.2c3.7.7 8.8 1.9 11.4 2.6a70 70 0 0 0 8 1.7c2.2.2 5.2 1 7.5 2 5 1.8 8.2 2.1 15 1.1 5.3-.7 8.2-.6 11.7.3 1.6.4 1.6.5 1.4 1.8l-.7 4.1c-.2 2-.8 3.8-2 6.2a35 35 0 0 0-2.5 6c-.6 2.6-.6 2.8.3 5.9.8 2.7.9 3.8.7 7.7-.1 2.9-.5 5.7-1 7.4l-1.6 5.2c-.8 2.8-.6 2.8-6.6 1.3z" fill="#a32727" id="path12"/> <path d="M131.8 77.9c-1.2-.5-3.7-1.1-5.5-1.4-2-.4-5.5-1.3-8-2.1a59.9 59.9 0 0 0-14.4-3A56 56 0 0 1 88.6 68l.8-2.5a20.5 20.5 0 0 0 .5-10c0-1-5.2-6.1-7.9-8a46.4 46.4 0 0 0-15.2-8c-2.2-.5-2 .2.4 1.6 4.8 2.8 11.6 7.6 14.3 10 2.7 2.5 6.3 7.2 6.3 8.3 0 .3-1 .7-2.3 1-2.5.6-3.7 1.5-3.7 2.9 0 .5-.6 1.6-1.3 2.4-1.7 2-3 2-9.5.5-4.3-1-5-1-8-.6-3.4.5-4.9.4-13.3-.4-6.6-.7-12.4-1.6-15-2.4-1.8-.6-2.2-.9-3-2.6-1.2-2.4-2-2.5-1.7-.2.2 2 0 2.1-3.4 2.1-2.2 0-7.2-1-7.7-1.5-.1-.1 0-.8.5-1.6 1-2 1.2-2.7 1.6-7.2.2-2.4.6-4.4.7-4.6.5-.5 2.8 2 4 4.2.6 1 1.7 2.2 2.4 2.8l1.4 1.2v-1.3c0-.7-.2-1.7-.4-2-.2-.5-1-2.1-1.6-3.8-.6-1.6-2.7-5.8-4.5-9.2-3.8-6.9-3.8-6.9-9-8.2a17 17 0 0 1-2.6-.8l-.9-4.2C10 21.8 8 14 6.5 10.2 6 8.5 5 1.8 5.6 1.8l2.6 1c1.4.7 7.8 2.4 14.2 4l18.5 4.4a163.1 163.1 0 0 1 22.5 7 189 189 0 0 0 25 6.2c3.7.7 8.8 1.9 11.4 2.6a70 70 0 0 0 8 1.7c2.2.2 5.2 1 7.5 2 5 1.8 8.2 2.1 15 1.1 5.3-.7 8.2-.6 11.7.3 1.6.4 1.6.5 1.4 1.8l-.7 4.1c-.2 2-.8 3.8-2 6.2-2.7 5.2-3.6 9.5-2.6 12.4.2.7.4 1.9.3 2.5-.2 1.1-.3 1-1.5-1.3-1.5-3-2.7-4.2-4.8-4.9-1.1-.4-10-1-16.3-1.3-.2 0-.3.3-.3.6s1.5 1.2 3.4 2.1c5.2 2.6 8.5 6.3 10.2 11.4.3.9.8 1.8 1.1 2.1.6.5.8.4 1.5-.4 1-1.2 1-3 .2-4.7-.8-1.5-5.4-5.3-7.7-6.3-2.2-1-4.4-2.6-4.4-3.2 0-.2 1.4-.3 4-.3 3.3.2 4.2.4 6.4 1.5 2.8 1.4 4 3.3 5 7.6.5 2.5.5 2.6 1.9 2.6 1.3 0 1.4 0 1.4 1.8 0 1.5-1.4 7.5-2.8 11.9-.2.7-1.3.6-3.8-.4zM49 53a65 65 0 0 0-2.6-6c-1.2-2.5-2.1-4.6-2.1-4.9 0-.7 1-.4 4.2 1.4 1.7.9 3.4 1.6 3.7 1.5.9-.4.3-2.8-1.4-5.2-1.4-2-1.6-2.2-3.9-2.7A67.2 67.2 0 0 0 32 35c-.2.2 1 2.1 3 4.5a204 204 0 0 1 7.7 10.8c2.5 3.9 4.9 7 5.5 7.2 1 .5 1 .5 1.2-1 0-.9 0-2.4-.3-3.3zm-19.3 3.1c-.2-.3-.3-.2-.3.3 0 .4.1.7.2.5.2-.1.2-.5 0-.8zm83.4-1.8l-1.6-1-1.5-1 1.3 1c.7.7 1.4 1.2 1.6 1.2.2 0 .3 0 .2-.2zm-20.8-4.8c-1.7-2-10.4-7-13.1-7.5l-1.5-.3 1.5 1c2.5 1.5 13.1 7.4 13.5 7.5 0 0 0-.3-.4-.7zm7.5-3.7c-.5-.4-1-.7-1.3-.7-.2 0 0 .3.6.7 1.4.8 1.8.7.7 0zM11.7 60.2c-1 0-1.3-.4-1.3-.9 0-1.8 1-7.7 1.3-7.7.7 0 4 8.1 3.4 8.7-.2.2-1 .2-3.4 0z" fill="#9c2323" id="path14"/> <path d="M131.7 77.3c-1.4-.6-2.2-1.2-2-1.5 0-.3-1-2-2.3-3.9-2.5-3.3-3-4.2-5-8.8-.8-1.6-2-3.5-2.7-4.3a64.1 64.1 0 0 0-12-8.4l-5.7-3.7a13.3 13.3 0 0 0-6-2.7c-1.2 0-.1.8 3.6 2.8a62.2 62.2 0 0 1 11 7.3c4.2 3.2 6.5 5.9 9.5 11.3l4.2 6.8c1.1 1.7 2 3.2 1.9 3.3-.4.6-1.9.3-8-1.6-4.3-1.4-7.2-2-10.2-2.4a56.2 56.2 0 0 1-14.6-2.7c-.1-.3.2-1.3.7-2.1 1.1-2 1.1-3.8 0-6.7-2.1-5.5-7-10.3-16.5-16-6-3.6-8.8-4.7-12.3-5-3.3-.3-3.3 0 .3 2.2 2.3 1.5 3.8 2.6 9.2 6.6 3.2 2.5 5.7 5.8 5.7 7.7 0 1.3-.2 1.7-1.5 2.5-1.7 1-2.5 2.2-2 3.4.2 1-1.5 4.7-2.2 4.7-1.3 0-6.7-4.4-12.3-9.7-2.9-2.9-3.8-4-4.3-5.6-.5-1.7-.5-2 .1-2.7.6-.7.5-1-.9-3a13 13 0 0 1-1.5-2.9c0-.7-3.6-4.3-4.7-4.7-.6-.2-3-.7-5.5-1L36.5 35c-5.3-1-6.2-1-6.2-.4 0 .3 1.4 2.2 3.2 4.4 4.2 5.3 6.1 8.2 8.8 13.5A52.7 52.7 0 0 1 47 64c-.8.8-10-.5-11-1.5l-1.3-3a159.4 159.4 0 0 0-14-27c-.5-.3-2.7-1-5-1.6-4.3-1-4.9-1.4-5-3.1 0-2-1.7-9.5-3.2-14.3A43.1 43.1 0 0 1 5.5 2a184.2 184.2 0 0 0 16.9 4.8l18.4 4.4a163.1 163.1 0 0 1 22.5 7 189 189 0 0 0 25 6.2c3.7.7 8.8 1.9 11.4 2.6a70 70 0 0 0 8 1.7c2.2.2 5.2 1 7.5 2 5 1.8 8.2 2.1 15 1.1 5.3-.7 8.2-.6 11.7.3 1.6.4 1.6.5 1.4 1.8l-.7 4.1c-.2 2-.8 3.8-2 6.2-2.2 4.2-3.7 9.8-3 11.4.6 2 .4 2.7-.5 1.1-2-3.8-4-4.5-14.6-5.1-4.4-.3-8.2-.4-8.3-.2-.4.4.9 1.4 4.3 3.2 5 2.8 7.5 5.3 9.4 10 1.1 2.7 2.2 4.5 3.6 6 2 2.2 3 2.8 3 1.7 0-.3-.3-1-.8-1.8-1-1.6-1-2.4 0-3.3.9-.9 4.7-1 4.7-.2l-1 4.2-1.6 5.4c-.5 2.1-1 2.2-4.1.7zm-25.1-15a54.4 54.4 0 0 0-28.7-21.1c-2.7-.3-2.6.4.2 1.7a85.4 85.4 0 0 1 20.4 13.8c3 2.5 5 3.9 5.5 3.6.2-.1.5.3.8 1 .4 1 1 1.8 1.8 1.8.1 0 .1-.3 0-.8zm-53.3 2.8l-1.6-.5.5-1.7c.7-2.1.3-5-1.1-8.6L48.8 49c-.6-1.6-1-3-.9-3.2.2-.2 1.3.2 2.5.7 3 1.5 8 6.4 9.6 9.6 1.7 3.5 2.8 6.7 2.6 8.1l-.1 1.2-3.9.1c-2 0-4.5-.1-5.3-.4zm-30.5-3.6c-.9-.1-1-.4-.8-1.3.6-2.1 1.5-4 2-4 .8 0 2.4 2.8 2.6 4.3.1 1 0 1.1-1.4 1.2-.8 0-1.9 0-2.4-.2zM128 57.8c-1.6-1-3.1-2-3.3-2-.6 0-3.3-1.8-3.3-2.2 0-.7 5.4 0 7.3 1 2.7 1 5 5.1 3 5-.4 0-2.1-.8-3.7-1.8z" fill="#941514" id="path16"/> <path d="m 134.8,53 c -1.7,-0.6 -7,-1.1 -17.7,-1.8 -7,-0.4 -9,-1 -13.6,-4 -3.7,-2.5 -6,-3.2 -10.1,-3.2 -2,0 -4.8,-0.5 -7.3,-1 -2.2,-0.6 -6.1,-1.4 -8.6,-1.8 -2.4,-0.3 -6,-1 -8,-1.5 -2,-0.5 -4.8,-0.8 -6.2,-0.8 -1.5,0 -4.8,-0.4 -7.5,-0.9 L 46.1,36.5 C 43.4,36.2 39.1,35.5 36.6,35 27.926677,34.240332 19.388666,32.357936 11.2,29.4 10.515101,24.029072 9.3094245,18.737492 7.6,13.6 6.3039854,9.8573794 5.5300353,5.9539785 5.3,2 10.853782,3.8678873 16.493528,5.4697088 22.2,6.8 l 18.5,4.4 c 7.658964,1.787795 15.178583,4.127232 22.5,7 8.182649,2.632765 16.535374,4.704241 25,6.2 3.7,0.7 8.8,1.9 11.4,2.6 2.63126,0.722099 5.30248,1.289734 8,1.7 2.2,0.2 5.2,1 7.5,2 5,1.8 8.2,2.1 15,1.1 5.3,-0.7 8.2,-0.6 11.7,0.3 1.6,0.4 1.6,0.5 1.4,1.8 l -0.7,4.1 c -0.26074,2.176274 -0.93988,4.28159 -2,6.2 -1,1.8 -2.1,4.8 -2.5,6.4 -0.4,1.7 -1,3.1 -1.2,3 -0.2,0 -1.2,-0.2 -2.1,-0.6 z" fill="#671919" id="path18"/> <path d="M134.1 52.2c-1.3-.3-6.2-.8-10.8-1-11.9-.6-14.6-1.2-19.1-4.3a20.3 20.3 0 0 0-11.3-4 201 201 0 0 1-14.3-2.1l-7.2-1.3c-2.6-.6-6.1-1.1-7.9-1.3-1.7-.1-4.8-.5-6.8-.9l-7.4-1c-8.7-1-21.8-3.2-29.8-5l-8.4-2-.8-4.3C9.6 20.6 8 14 6.5 10.2c-.6-1.7-1.4-8.4-1-8.4l2.6 1c1.4.7 7.8 2.4 14.2 4l18.5 4.4a163.1 163.1 0 0 1 22.5 7 189 189 0 0 0 25 6.2c3.7.7 8.8 1.9 11.4 2.6a70 70 0 0 0 8 1.7c2.2.2 5.2 1 7.5 2 5 1.8 8.2 2.1 15 1.1 5.3-.7 8.2-.6 11.7.3 1.6.4 1.6.5 1.4 1.8l-.7 4.2c-.2 2-.7 3.6-1.8 5.5a31.4 31.4 0 0 0-3 8.1c-.3 1.3-.4 1.3-3.7.5z" fill="#2b2b2b" id="path20"/> <path d="M133.6 52c-1.6-.6-2.9-1.1-2.9-1.3 0-.2.2-.4.3-.4l1-.4c.5-.3.1-.8-1.7-2.5-2.5-2.4-2.7-2.4-8.7-.6-2.9 1-4.2 1.1-8.1 1-4.2 0-4.6 0-3.9.6.5.4.7.8.6.9-.6.6-3-.4-6.3-2.7-2-1.3-4.5-2.7-5.7-3l-8.1-3.7-7.8-3.7c-1-.5-2.5-1.7-3.4-2.8-2-2.4-3.1-3-7.2-3.5-1.8-.3-4.7-1-6.4-1.5-2.3-.7-4.1-1-6.6-1h-3.4l2.1 2c1.1 1.1 2.7 2.7 3.4 3.6.9 1 2.4 1.9 4.3 2.6 1.6.7 3.5 1.7 4.2 2.3l1.2 1-1.2-.3c-2-.4-7.4-3-8.4-4.1-.6-.6-2.7-2.2-4.7-3.7-4.2-3-4.6-3.4-3.4-3.7.5-.2 1-.4 1-.6 0-.2 1-.4 2.2-.4 1.3 0 2.5-.2 2.6-.4.5-.8-2-3-5-4.5-1.7-.8-5.6-2.3-8.6-3.4-5.9-2-22-9.5-21.2-9.9a128.2 128.2 0 0 1 30 8.6c12.2 4.2 19 7 25 10 2.6 1.4 6.6 3.1 8.9 3.9 3.9 1.2 9.4 2 9.4 1.5s-3.5-2-10.5-4.5C79.3 24.7 72.7 21.8 75 22c1.5.3 2.6.6 13.8 4 5.9 1.7 7.8 2 4.6.6-3-1.3-.6-1.1 5.5.4l9.5 2c1.9.3 5 1.1 7 1.9 4.7 1.8 8.3 2.1 14 1.3 2.4-.4 5.4-.7 6.7-.7 2.6 0 6.4.8 6.8 1.3 0 .3 0 1-.3 1.8-.4 1.4-.5 1.5-2.6 1.5-1.9.1-2.1 0-2.5-1-.4-1-.6-1.1-2.5-1-1.1.2-2.5.7-3.3 1.2-1 .8-1.8.9-6.3 1-5.7 0-6.6-.2-10.2-1.9-3.2-1.5-4.2-1.6-3.8-.2 1 2.6-.3 5-3 6.3-1.7.7-2 .7-3.8 0-1.3-.4-2.1-.4-2.7-.1-.6.3-.5.5.8 1 5.7 2.5 6.5 2.7 10.6 2.7 3.9 0 6.8-.7 6.8-1.6 0-.2-.7-.7-1.5-1-.9-.4-1.4-.8-1.3-1 .2-.3 2.4-.5 5-.5 5.6 0 8-.4 9.6-1.6 1.6-1.2 3.3-1.4 7-.8 4 .5 4.1.7 1.2 6.5a41.7 41.7 0 0 0-2.3 5.4l-.5 2.2c-.3 1.3 0 1.2-3.7.1zm-47-10c-6-1-8.9-2-11.4-3.4l-5.3-2.7c-4.8-2.3-5.1-2.7-1.7-3 3.6-.1 5.9.6 14.6 5 9.6 4.7 10.1 5.3 3.7 4.1zm-29.9-4.7c-2.7-.4-7-1.5-7.8-2-1-.5-10-9.2-10-9.7 0-.8 2-.3 4 1.1 1.3.8 3.3 2 4.6 2.5 1.3.6 2.6 1.5 2.8 2 .3.5 1.6 1.4 3 2 2.5 1.2 5.5 3.3 5.5 4 0 .4-.2.4-2 0zM22.8 32c-3.2-1-4.4-2.3-7.6-8.6-3.8-7.5-2.6-7.1 6.5 2.1 3.6 3.6 6.5 6.7 6.5 7 0 .6-2.5.4-5.4-.5z" fill="#141313" id="path22"/> </svg>