<svg width="88" height="101" viewBox="0 0 88 101" fill="none" xmlns="http://www.w3.org/2000/svg">
<path d="M72.8784 38.8573L46.6467 12.6256C45.1459 11.1248 42.6663 11.1248 41.1655 12.6256L35.7495 18.0416L42.6663 24.9584C44.2976 24.4364 46.1247 24.7626 47.3645 26.0677C48.6696 27.3728 48.9958 29.1998 48.4738 30.8312L55.1296 37.487C56.7609 36.9649 58.588 37.2912 59.8931 38.5963C61.7202 40.3581 61.7202 43.2945 59.8931 45.1215C58.066 46.9486 55.1949 46.9486 53.3678 45.1215C51.9975 43.7512 51.6712 41.7936 52.389 40.0971L46.19 33.898V50.2113C46.6467 50.407 47.0383 50.7333 47.4298 51.0595C49.2569 52.8214 49.2569 55.7578 47.4298 57.5848C45.6027 59.3467 42.7316 59.3467 40.9045 57.5848C39.0774 55.7578 39.0774 52.8866 40.9045 51.0595C41.3613 50.6028 41.8833 50.2765 42.4053 50.0808V33.5718C41.8833 33.376 41.3613 32.9845 40.9045 32.593C39.5342 31.2227 39.2079 29.2651 39.9257 27.5685L33.0741 20.7822L15.1296 38.7268C13.6288 40.2276 13.6288 42.7072 15.1296 44.208L41.296 70.3744C42.7968 71.8752 45.2764 71.8752 46.7772 70.3744L72.8131 44.3385C74.3792 42.7724 74.3792 40.3581 72.8784 38.8573Z" fill="white"/>
<path d="M38.948 88.82C38.7453 88.4467 38.452 88.164 38.068 87.972C37.6947 87.7693 37.252 87.668 36.74 87.668C35.8547 87.668 35.1453 87.9613 34.612 88.548C34.0787 89.124 33.812 89.8973 33.812 90.868C33.812 91.9027 34.0893 92.7133 34.644 93.3C35.2093 93.876 35.9827 94.164 36.964 94.164C37.636 94.164 38.2013 93.9933 38.66 93.652C39.1293 93.3107 39.4707 92.82 39.684 92.18H36.212V90.164H42.164V92.708C41.9613 93.3907 41.6147 94.0253 41.124 94.612C40.644 95.1987 40.0307 95.6733 39.284 96.036C38.5373 96.3987 37.6947 96.58 36.756 96.58C35.6467 96.58 34.6547 96.34 33.78 95.86C32.916 95.3693 32.2387 94.692 31.748 93.828C31.268 92.964 31.028 91.9773 31.028 90.868C31.028 89.7587 31.268 88.772 31.748 87.908C32.2387 87.0333 32.916 86.356 33.78 85.876C34.644 85.3853 35.6307 85.14 36.74 85.14C38.084 85.14 39.2147 85.4653 40.132 86.116C41.06 86.7667 41.6733 87.668 41.972 88.82H38.948ZM46.4155 85.268V96.5H43.6795V85.268H46.4155ZM56.4783 85.268V87.46H53.5023V96.5H50.7663V87.46H47.7903V85.268H56.4783Z" fill="white"/>
</svg>
