<svg width="88" height="100" viewBox="0 0 88 100" fill="none" xmlns="http://www.w3.org/2000/svg">
<path d="M44 59.534L57.86 55.766L59.729 35.432H35.078L34.466 28.67H60.344L61.025 22.037H26.975L28.883 42.071H52.343L51.56 50.669L44 52.67L36.44 50.669L35.966 45.137H29.156L30.143 55.769L44 59.534ZM17 11H71L66.131 65L44 71L21.869 65L17 11Z" fill="white"/>
<path d="M32.72 84.768V96H29.984V91.376H25.728V96H22.992V84.768H25.728V89.168H29.984V84.768H32.72ZM42.7751 84.768V86.96H39.7991V96H37.0631V86.96H34.0871V84.768H42.7751ZM56.8683 84.768V96H54.1323V89.264L51.6203 96H49.4123L46.8843 89.248V96H44.1483V84.768H47.3802L50.5323 92.544L53.6523 84.768H56.8683ZM61.5718 93.888H65.1558V96H58.8358V84.768H61.5718V93.888Z" fill="white"/>
</svg>
