<svg width="89" height="101" viewBox="0 0 89 101" fill="none" xmlns="http://www.w3.org/2000/svg">
<path d="M15 11C35.0135 11 54.9865 11 75 11C75 31.0135 75 51.027 75 71C55.027 71 35.0135 71 15 71C15 50.946 15 30.973 15 11ZM68.6799 42.7623C67.4645 40.5746 65.8035 39.0756 63.4132 38.549C61.7117 38.1438 60.0101 38.1438 58.3086 38.5084C52.7988 39.6428 50.449 46.287 54.0142 50.7029C55.2701 52.2424 56.9311 53.1742 58.6732 53.9845C60.2127 54.7137 61.7927 55.4024 63.3322 56.1722C64.3855 56.6988 64.8312 57.6712 64.7097 58.846C64.5881 60.0209 63.7778 60.6691 62.765 61.0338C60.4963 61.844 57.8629 61.1148 56.3234 59.2107C55.9993 58.8055 55.6752 58.3599 55.3511 57.9142C53.8116 58.8055 52.3126 59.6563 50.8136 60.5476C51.7454 62.3707 53.0419 63.8292 54.8244 64.8015C57.8629 66.4625 61.0635 66.7056 64.345 65.8953C66.4922 65.3687 68.3153 64.2748 69.4497 62.2897C71.5564 58.5219 70.341 53.8224 66.6138 51.5132C64.9527 50.5003 63.0891 49.8116 61.3471 48.9203C60.4963 48.4747 59.605 48.0695 58.8758 47.5024C57.5793 46.449 57.8224 44.3423 59.2809 43.5321C60.6988 42.7218 62.684 43.208 63.7778 44.6259C64.0209 44.9095 64.183 45.2336 64.4261 45.5577C65.8035 44.6259 67.2215 43.6941 68.6799 42.7623ZM30.8001 61.1553C31.6104 62.8974 32.7853 64.2748 34.4463 65.1661C36.5935 66.341 38.9433 66.5435 41.3336 66.1789C43.4808 65.8548 45.2633 64.8825 46.4382 62.9379C47.4105 61.3173 47.6941 59.5348 47.6941 57.6306C47.6941 51.4726 47.6941 45.3147 47.6941 39.1566C47.6941 38.9946 47.6941 38.792 47.6941 38.5895C45.79 38.5895 43.9669 38.5895 42.0628 38.5895C42.0628 38.8325 42.0628 39.0351 42.0628 39.2782C42.0628 45.3552 42.0628 51.3916 42.0628 57.4686C42.0628 58.0358 42.0223 58.6435 41.9413 59.2107C41.7792 60.1425 41.293 60.8312 40.3612 61.1148C38.6192 61.6415 37.2012 61.1148 36.1884 59.6158C35.9453 59.2107 35.7022 58.8055 35.4186 58.4004C33.8386 59.3322 32.3396 60.2235 30.8001 61.1553Z" fill="white"/>
<path d="M8.032 84.768V92.416C8.032 93.6 7.696 94.512 7.024 95.152C6.36267 95.792 5.46667 96.112 4.336 96.112C3.152 96.112 2.20267 95.776 1.488 95.104C0.773333 94.432 0.416 93.4773 0.416 92.24H3.136C3.136 92.7093 3.232 93.0667 3.424 93.312C3.616 93.5467 3.89333 93.664 4.256 93.664C4.58667 93.664 4.84267 93.5573 5.024 93.344C5.20533 93.1307 5.296 92.8213 5.296 92.416V84.768H8.032ZM9.698 91.52C9.698 90.6027 9.86867 89.7973 10.21 89.104C10.562 88.4107 11.0367 87.8773 11.634 87.504C12.2313 87.1307 12.898 86.944 13.634 86.944C14.2633 86.944 14.8127 87.072 15.282 87.328C15.762 87.584 16.13 87.92 16.386 88.336V87.072H19.122V96H16.386V94.736C16.1193 95.152 15.746 95.488 15.266 95.744C14.7967 96 14.2473 96.128 13.618 96.128C12.8927 96.128 12.2313 95.9413 11.634 95.568C11.0367 95.184 10.562 94.6453 10.21 93.952C9.86867 93.248 9.698 92.4373 9.698 91.52ZM16.386 91.536C16.386 90.8533 16.194 90.3147 15.81 89.92C15.4367 89.5253 14.978 89.328 14.434 89.328C13.89 89.328 13.426 89.5253 13.042 89.92C12.6687 90.304 12.482 90.8373 12.482 91.52C12.482 92.2027 12.6687 92.7467 13.042 93.152C13.426 93.5467 13.89 93.744 14.434 93.744C14.978 93.744 15.4367 93.5467 15.81 93.152C16.194 92.7573 16.386 92.2187 16.386 91.536ZM25.1174 93.44L27.0534 87.072H29.9654L26.7974 96H23.4214L20.2534 87.072H23.1814L25.1174 93.44ZM30.573 91.52C30.573 90.6027 30.7437 89.7973 31.085 89.104C31.437 88.4107 31.9117 87.8773 32.509 87.504C33.1063 87.1307 33.773 86.944 34.509 86.944C35.1383 86.944 35.6877 87.072 36.157 87.328C36.637 87.584 37.005 87.92 37.261 88.336V87.072H39.997V96H37.261V94.736C36.9943 95.152 36.621 95.488 36.141 95.744C35.6717 96 35.1223 96.128 34.493 96.128C33.7677 96.128 33.1063 95.9413 32.509 95.568C31.9117 95.184 31.437 94.6453 31.085 93.952C30.7437 93.248 30.573 92.4373 30.573 91.52ZM37.261 91.536C37.261 90.8533 37.069 90.3147 36.685 89.92C36.3117 89.5253 35.853 89.328 35.309 89.328C34.765 89.328 34.301 89.5253 33.917 89.92C33.5437 90.304 33.357 90.8373 33.357 91.52C33.357 92.2027 33.5437 92.7467 33.917 93.152C34.301 93.5467 34.765 93.744 35.309 93.744C35.853 93.744 36.3117 93.5467 36.685 93.152C37.069 92.7573 37.261 92.2187 37.261 91.536ZM46.0404 96.112C45.219 96.112 44.483 95.9787 43.8324 95.712C43.1817 95.4453 42.659 95.0507 42.2644 94.528C41.8804 94.0053 41.6777 93.376 41.6564 92.64H44.5684C44.611 93.056 44.755 93.376 45.0004 93.6C45.2457 93.8133 45.5657 93.92 45.9604 93.92C46.3657 93.92 46.6857 93.8293 46.9204 93.648C47.155 93.456 47.2724 93.1947 47.2724 92.864C47.2724 92.5867 47.1764 92.3573 46.9844 92.176C46.803 91.9947 46.5737 91.8453 46.2964 91.728C46.0297 91.6107 45.6457 91.4773 45.1444 91.328C44.419 91.104 43.827 90.88 43.3684 90.656C42.9097 90.432 42.515 90.1013 42.1844 89.664C41.8537 89.2267 41.6884 88.656 41.6884 87.952C41.6884 86.9067 42.067 86.0907 42.8244 85.504C43.5817 84.9067 44.5684 84.608 45.7844 84.608C47.0217 84.608 48.019 84.9067 48.7764 85.504C49.5337 86.0907 49.939 86.912 49.9924 87.968H47.0324C47.011 87.6053 46.8777 87.3227 46.6324 87.12C46.387 86.9067 46.0724 86.8 45.6884 86.8C45.3577 86.8 45.091 86.8907 44.8884 87.072C44.6857 87.2427 44.5844 87.4933 44.5844 87.824C44.5844 88.1867 44.755 88.4693 45.0964 88.672C45.4377 88.8747 45.971 89.0933 46.6964 89.328C47.4217 89.5733 48.0084 89.808 48.4564 90.032C48.915 90.256 49.3097 90.5813 49.6404 91.008C49.971 91.4347 50.1364 91.984 50.1364 92.656C50.1364 93.296 49.971 93.8773 49.6404 94.4C49.3204 94.9227 48.851 95.3387 48.2324 95.648C47.6137 95.9573 46.883 96.112 46.0404 96.112ZM51.2761 91.536C51.2761 90.608 51.4628 89.7973 51.8361 89.104C52.2201 88.4107 52.7481 87.8773 53.4201 87.504C54.1028 87.1307 54.8815 86.944 55.7561 86.944C56.8761 86.944 57.8095 87.2373 58.5561 87.824C59.3135 88.4107 59.8095 89.2373 60.0441 90.304H57.1321C56.8868 89.6213 56.4121 89.28 55.7081 89.28C55.2068 89.28 54.8068 89.4773 54.5081 89.872C54.2095 90.256 54.0601 90.8107 54.0601 91.536C54.0601 92.2613 54.2095 92.8213 54.5081 93.216C54.8068 93.6 55.2068 93.792 55.7081 93.792C56.4121 93.792 56.8868 93.4507 57.1321 92.768H60.0441C59.8095 93.8133 59.3135 94.6347 58.5561 95.232C57.7988 95.8293 56.8655 96.128 55.7561 96.128C54.8815 96.128 54.1028 95.9413 53.4201 95.568C52.7481 95.1947 52.2201 94.6613 51.8361 93.968C51.4628 93.2747 51.2761 92.464 51.2761 91.536ZM64.2436 88.56C64.5636 88.0693 64.9636 87.6853 65.4436 87.408C65.9236 87.12 66.457 86.976 67.0436 86.976V89.872H66.2916C65.609 89.872 65.097 90.0213 64.7556 90.32C64.4143 90.608 64.2436 91.12 64.2436 91.856V96H61.5076V87.072H64.2436V88.56ZM69.7274 86.144C69.2474 86.144 68.8527 86.0053 68.5434 85.728C68.2447 85.44 68.0954 85.088 68.0954 84.672C68.0954 84.2453 68.2447 83.8933 68.5434 83.616C68.8527 83.328 69.2474 83.184 69.7274 83.184C70.1967 83.184 70.5807 83.328 70.8794 83.616C71.1887 83.8933 71.3434 84.2453 71.3434 84.672C71.3434 85.088 71.1887 85.44 70.8794 85.728C70.5807 86.0053 70.1967 86.144 69.7274 86.144ZM71.0874 87.072V96H68.3514V87.072H71.0874ZM75.8061 88.336C76.0728 87.92 76.4408 87.584 76.9101 87.328C77.3795 87.072 77.9288 86.944 78.5581 86.944C79.2941 86.944 79.9608 87.1307 80.5581 87.504C81.1555 87.8773 81.6248 88.4107 81.9661 89.104C82.3181 89.7973 82.4941 90.6027 82.4941 91.52C82.4941 92.4373 82.3181 93.248 81.9661 93.952C81.6248 94.6453 81.1555 95.184 80.5581 95.568C79.9608 95.9413 79.2941 96.128 78.5581 96.128C77.9395 96.128 77.3901 96 76.9101 95.744C76.4408 95.488 76.0728 95.1573 75.8061 94.752V100.256H73.0701V87.072H75.8061V88.336ZM79.7101 91.52C79.7101 90.8373 79.5181 90.304 79.1341 89.92C78.7608 89.5253 78.2968 89.328 77.7421 89.328C77.1981 89.328 76.7341 89.5253 76.3501 89.92C75.9768 90.3147 75.7901 90.8533 75.7901 91.536C75.7901 92.2187 75.9768 92.7573 76.3501 93.152C76.7341 93.5467 77.1981 93.744 77.7421 93.744C78.2861 93.744 78.7501 93.5467 79.1341 93.152C79.5181 92.7467 79.7101 92.2027 79.7101 91.52ZM88.9055 93.68V96H87.5135C86.5215 96 85.7482 95.76 85.1935 95.28C84.6388 94.7893 84.3615 93.9947 84.3615 92.896V89.344H83.2735V87.072H84.3615V84.896H87.0975V87.072H88.8895V89.344H87.0975V92.928C87.0975 93.1947 87.1615 93.3867 87.2895 93.504C87.4175 93.6213 87.6308 93.68 87.9295 93.68H88.9055Z" fill="white"/>
</svg>
