<svg xmlns="http://www.w3.org/2000/svg" xmlns:xlink="http://www.w3.org/1999/xlink" width="150" zoomAndPan="magnify" viewBox="0 0 112.5 30.000001" height="40" preserveAspectRatio="xMidYMid meet" version="1.0"><defs><g/></defs><g fill="#ffffff" fill-opacity="1"><g transform="translate(1.572579, 21.411292)"><g><path d="M 11.390625 -10.359375 C 11.117188 -10.859375 10.726562 -11.238281 10.21875 -11.5 C 9.707031 -11.769531 9.109375 -11.90625 8.421875 -11.90625 C 7.222656 -11.90625 6.265625 -11.515625 5.546875 -10.734375 C 4.828125 -9.953125 4.46875 -8.90625 4.46875 -7.59375 C 4.46875 -6.195312 4.84375 -5.109375 5.59375 -4.328125 C 6.351562 -3.546875 7.394531 -3.15625 8.71875 -3.15625 C 9.625 -3.15625 10.390625 -3.382812 11.015625 -3.84375 C 11.640625 -4.300781 12.097656 -4.960938 12.390625 -5.828125 L 7.703125 -5.828125 L 7.703125 -8.546875 L 15.734375 -8.546875 L 15.734375 -5.109375 C 15.460938 -4.191406 15 -3.335938 14.34375 -2.546875 C 13.6875 -1.753906 12.851562 -1.113281 11.84375 -0.625 C 10.832031 -0.132812 9.695312 0.109375 8.4375 0.109375 C 6.9375 0.109375 5.597656 -0.21875 4.421875 -0.875 C 3.253906 -1.53125 2.34375 -2.4375 1.6875 -3.59375 C 1.039062 -4.757812 0.71875 -6.09375 0.71875 -7.59375 C 0.71875 -9.09375 1.039062 -10.425781 1.6875 -11.59375 C 2.34375 -12.769531 3.253906 -13.6875 4.421875 -14.34375 C 5.585938 -15 6.921875 -15.328125 8.421875 -15.328125 C 10.234375 -15.328125 11.757812 -14.882812 13 -14 C 14.25 -13.125 15.070312 -11.910156 15.46875 -10.359375 Z M 11.390625 -10.359375 "/></g></g></g><g fill="#ffffff" fill-opacity="1"><g transform="translate(18.008901, 21.411292)"><g><path d="M 10.765625 -2.671875 L 5.109375 -2.671875 L 4.203125 0 L 0.34375 0 L 5.828125 -15.140625 L 10.09375 -15.140625 L 15.578125 0 L 11.671875 0 Z M 9.8125 -5.53125 L 7.9375 -11.0625 L 6.078125 -5.53125 Z M 9.8125 -5.53125 "/></g></g></g><g fill="#ffffff" fill-opacity="1"><g transform="translate(33.905973, 21.411292)"><g><path d="M 14.890625 0 L 11.203125 0 L 5.03125 -9.34375 L 5.03125 0 L 1.34375 0 L 1.34375 -15.140625 L 5.03125 -15.140625 L 11.203125 -5.765625 L 11.203125 -15.140625 L 14.890625 -15.140625 Z M 14.890625 0 "/></g></g></g><g fill="#ffffff" fill-opacity="1"><g transform="translate(50.1266, 21.411292)"><g><path d="M 0.71875 -7.59375 C 0.71875 -9.09375 1.039062 -10.425781 1.6875 -11.59375 C 2.332031 -12.769531 3.234375 -13.6875 4.390625 -14.34375 C 5.546875 -15 6.859375 -15.328125 8.328125 -15.328125 C 10.128906 -15.328125 11.671875 -14.847656 12.953125 -13.890625 C 14.234375 -12.941406 15.085938 -11.648438 15.515625 -10.015625 L 11.453125 -10.015625 C 11.148438 -10.648438 10.722656 -11.128906 10.171875 -11.453125 C 9.617188 -11.785156 8.988281 -11.953125 8.28125 -11.953125 C 7.144531 -11.953125 6.222656 -11.554688 5.515625 -10.765625 C 4.816406 -9.972656 4.46875 -8.914062 4.46875 -7.59375 C 4.46875 -6.269531 4.816406 -5.210938 5.515625 -4.421875 C 6.222656 -3.628906 7.144531 -3.234375 8.28125 -3.234375 C 8.988281 -3.234375 9.617188 -3.398438 10.171875 -3.734375 C 10.722656 -4.066406 11.148438 -4.546875 11.453125 -5.171875 L 15.515625 -5.171875 C 15.085938 -3.535156 14.234375 -2.242188 12.953125 -1.296875 C 11.671875 -0.359375 10.128906 0.109375 8.328125 0.109375 C 6.859375 0.109375 5.546875 -0.21875 4.390625 -0.875 C 3.234375 -1.53125 2.332031 -2.4375 1.6875 -3.59375 C 1.039062 -4.757812 0.71875 -6.09375 0.71875 -7.59375 Z M 0.71875 -7.59375 "/></g></g></g><g fill="#ffffff" fill-opacity="1"><g transform="translate(66.562922, 21.411292)"><g><path d="M 14.453125 -15.140625 L 14.453125 0 L 10.765625 0 L 10.765625 -6.234375 L 5.03125 -6.234375 L 5.03125 0 L 1.34375 0 L 1.34375 -15.140625 L 5.03125 -15.140625 L 5.03125 -9.21875 L 10.765625 -9.21875 L 10.765625 -15.140625 Z M 14.453125 -15.140625 "/></g></g></g><g fill="#ffffff" fill-opacity="1"><g transform="translate(82.330573, 21.411292)"><g><path d="M 5.03125 -12.1875 L 5.03125 -9.125 L 9.96875 -9.125 L 9.96875 -6.28125 L 5.03125 -6.28125 L 5.03125 -2.953125 L 10.609375 -2.953125 L 10.609375 0 L 1.34375 0 L 1.34375 -15.140625 L 10.609375 -15.140625 L 10.609375 -12.1875 Z M 5.03125 -12.1875 "/></g></g></g><g fill="#ffffff" fill-opacity="1"><g transform="translate(93.999936, 21.411292)"><g><path d="M 15.5625 -15.140625 L 10.1875 0 L 5.5625 0 L 0.1875 -15.140625 L 4.125 -15.140625 L 7.875 -3.71875 L 11.65625 -15.140625 Z M 15.5625 -15.140625 "/></g></g></g></svg>