<svg width="88" height="110" viewBox="0 0 88 110" fill="none" xmlns="http://www.w3.org/2000/svg">
<g clip-path="url(#clip0_90_263)">
<path d="M21.9 10.5071V51.0071C17 45.6071 14 38.5071 14 30.7071C14 22.9071 17 15.8071 21.9 10.5071Z" fill="white"/>
<path d="M25.1 14.9071L42.4 49.6071H25.1V14.9071Z" fill="white"/>
<path d="M44 45.7071L27 11.8071H61L44 45.7071Z" fill="white"/>
<path d="M44 0.707123C51.8 0.707123 58.9 3.70712 64.2 8.60712H23.8C29.1 3.70712 36.2 0.707123 44 0.707123Z" fill="white"/>
<path d="M62.9 49.6071H45.6L62.9 14.9071V49.6071Z" fill="white"/>
<path d="M64.2 52.8071C58.9 57.7071 51.8 60.7071 44 60.7071C36.2 60.7071 29.1 57.7071 23.8 52.8071H64.2Z" fill="white"/>
<path d="M66.1 50.9071V10.5071C71 15.8071 74 22.9071 74 30.7071C74 38.5071 71 45.6071 66.1 50.9071Z" fill="white"/>
<path d="M25.1 14.9071L42.4 49.6071H25.1V14.9071Z" fill="white"/>
<path d="M44 45.7071L27 11.8071H61L44 45.7071Z" fill="white"/>
<path d="M45.6 49.6071L62.9 14.9071V49.6071H45.6Z" fill="white"/>
<path d="M27 11.8071H61L44 45.7071L27 11.8071Z" fill="white"/>
</g>
<path d="M23.1886 74.4751V85.7071H20.4526V78.9711L17.9406 85.7071H15.7326L13.2046 78.9551V85.7071H10.4686V74.4751H13.7006L16.8526 82.2511L19.9726 74.4751H23.1886ZM24.6121 81.2271C24.6121 80.3098 24.7827 79.5045 25.1241 78.8111C25.4761 78.1178 25.9507 77.5845 26.5481 77.2111C27.1454 76.8378 27.8121 76.6511 28.5481 76.6511C29.1774 76.6511 29.7267 76.7791 30.1961 77.0351C30.6761 77.2911 31.0441 77.6271 31.3001 78.0431V76.7791H34.0361V85.7071H31.3001V84.4431C31.0334 84.8591 30.6601 85.1951 30.1801 85.4511C29.7107 85.7071 29.1614 85.8351 28.5321 85.8351C27.8067 85.8351 27.1454 85.6485 26.5481 85.2751C25.9507 84.8911 25.4761 84.3525 25.1241 83.6591C24.7827 82.9551 24.6121 82.1445 24.6121 81.2271ZM31.3001 81.2431C31.3001 80.5605 31.1081 80.0218 30.7241 79.6271C30.3507 79.2325 29.8921 79.0351 29.3481 79.0351C28.8041 79.0351 28.3401 79.2325 27.9561 79.6271C27.5827 80.0111 27.3961 80.5445 27.3961 81.2271C27.3961 81.9098 27.5827 82.4538 27.9561 82.8591C28.3401 83.2538 28.8041 83.4511 29.3481 83.4511C29.8921 83.4511 30.3507 83.2538 30.7241 82.8591C31.1081 82.4645 31.3001 81.9258 31.3001 81.2431ZM40.9914 83.3871V85.7071H39.5994C38.6074 85.7071 37.8341 85.4671 37.2794 84.9871C36.7248 84.4965 36.4474 83.7018 36.4474 82.6031V79.0511H35.3594V76.7791H36.4474V74.6031H39.1834V76.7791H40.9754V79.0511H39.1834V82.6351C39.1834 82.9018 39.2474 83.0938 39.3754 83.2111C39.5034 83.3285 39.7168 83.3871 40.0154 83.3871H40.9914ZM50.9314 81.0991C50.9314 81.3551 50.9154 81.6218 50.8834 81.8991H44.6914C44.7341 82.4538 44.9101 82.8805 45.2194 83.1791C45.5394 83.4671 45.9288 83.6111 46.3874 83.6111C47.0701 83.6111 47.5448 83.3231 47.8114 82.7471H50.7234C50.5741 83.3338 50.3021 83.8618 49.9074 84.3311C49.5234 84.8005 49.0381 85.1685 48.4514 85.4351C47.8648 85.7018 47.2088 85.8351 46.4834 85.8351C45.6088 85.8351 44.8301 85.6485 44.1474 85.2751C43.4648 84.9018 42.9314 84.3685 42.5474 83.6751C42.1634 82.9818 41.9714 82.1711 41.9714 81.2431C41.9714 80.3151 42.1581 79.5045 42.5314 78.8111C42.9154 78.1178 43.4488 77.5845 44.1314 77.2111C44.8141 76.8378 45.5981 76.6511 46.4834 76.6511C47.3474 76.6511 48.1154 76.8325 48.7874 77.1951C49.4594 77.5578 49.9821 78.0751 50.3554 78.7471C50.7394 79.4191 50.9314 80.2031 50.9314 81.0991ZM48.1314 80.3791C48.1314 79.9098 47.9714 79.5365 47.6514 79.2591C47.3314 78.9818 46.9314 78.8431 46.4514 78.8431C45.9928 78.8431 45.6034 78.9765 45.2834 79.2431C44.9741 79.5098 44.7821 79.8885 44.7074 80.3791H48.1314ZM55.1108 78.2671C55.4308 77.7765 55.8308 77.3925 56.3108 77.1151C56.7908 76.8271 57.3241 76.6831 57.9108 76.6831V79.5791H57.1588C56.4761 79.5791 55.9641 79.7285 55.6228 80.0271C55.2815 80.3151 55.1108 80.8271 55.1108 81.5631V85.7071H52.3748V76.7791H55.1108V78.2671ZM60.5946 75.8511C60.1146 75.8511 59.7199 75.7125 59.4106 75.4351C59.1119 75.1471 58.9626 74.7951 58.9626 74.3791C58.9626 73.9525 59.1119 73.6005 59.4106 73.3231C59.7199 73.0351 60.1146 72.8911 60.5946 72.8911C61.0639 72.8911 61.4479 73.0351 61.7466 73.3231C62.0559 73.6005 62.2106 73.9525 62.2106 74.3791C62.2106 74.7951 62.0559 75.1471 61.7466 75.4351C61.4479 75.7125 61.0639 75.8511 60.5946 75.8511ZM61.9546 76.7791V85.7071H59.2186V76.7791H61.9546ZM63.3933 81.2271C63.3933 80.3098 63.564 79.5045 63.9053 78.8111C64.2573 78.1178 64.732 77.5845 65.3293 77.2111C65.9266 76.8378 66.5933 76.6511 67.3293 76.6511C67.9586 76.6511 68.508 76.7791 68.9773 77.0351C69.4573 77.2911 69.8253 77.6271 70.0813 78.0431V76.7791H72.8173V85.7071H70.0813V84.4431C69.8146 84.8591 69.4413 85.1951 68.9613 85.4511C68.492 85.7071 67.9426 85.8351 67.3133 85.8351C66.588 85.8351 65.9266 85.6485 65.3293 85.2751C64.732 84.8911 64.2573 84.3525 63.9053 83.6591C63.564 82.9551 63.3933 82.1445 63.3933 81.2271ZM70.0813 81.2431C70.0813 80.5605 69.8893 80.0218 69.5053 79.6271C69.132 79.2325 68.6733 79.0351 68.1293 79.0351C67.5853 79.0351 67.1213 79.2325 66.7373 79.6271C66.364 80.0111 66.1773 80.5445 66.1773 81.2271C66.1773 81.9098 66.364 82.4538 66.7373 82.8591C67.1213 83.2538 67.5853 83.4511 68.1293 83.4511C68.6733 83.4511 69.132 83.2538 69.5053 82.8591C69.8893 82.4645 70.0813 81.9258 70.0813 81.2431ZM77.5327 73.8671V85.7071H74.7967V73.8671H77.5327ZM20.8172 93.4751C22.0012 93.4751 23.0359 93.7098 23.9212 94.1791C24.8065 94.6485 25.4892 95.3098 25.9692 96.1631C26.4599 97.0058 26.7052 97.9818 26.7052 99.0911C26.7052 100.19 26.4599 101.166 25.9692 102.019C25.4892 102.872 24.8012 103.534 23.9052 104.003C23.0199 104.472 21.9905 104.707 20.8172 104.707H16.6092V93.4751H20.8172ZM20.6412 102.339C21.6759 102.339 22.4812 102.056 23.0572 101.491C23.6332 100.926 23.9212 100.126 23.9212 99.0911C23.9212 98.0565 23.6332 97.2511 23.0572 96.6751C22.4812 96.0991 21.6759 95.8111 20.6412 95.8111H19.3452V102.339H20.6412ZM36.6502 100.099C36.6502 100.355 36.6342 100.622 36.6022 100.899H30.4102C30.4529 101.454 30.6289 101.88 30.9382 102.179C31.2582 102.467 31.6475 102.611 32.1062 102.611C32.7889 102.611 33.2635 102.323 33.5302 101.747H36.4422C36.2929 102.334 36.0209 102.862 35.6262 103.331C35.2422 103.8 34.7569 104.168 34.1702 104.435C33.5835 104.702 32.9275 104.835 32.2022 104.835C31.3275 104.835 30.5489 104.648 29.8662 104.275C29.1835 103.902 28.6502 103.368 28.2662 102.675C27.8822 101.982 27.6902 101.171 27.6902 100.243C27.6902 99.3151 27.8769 98.5045 28.2502 97.8111C28.6342 97.1178 29.1675 96.5845 29.8502 96.2111C30.5329 95.8378 31.3169 95.6511 32.2022 95.6511C33.0662 95.6511 33.8342 95.8325 34.5062 96.1951C35.1782 96.5578 35.7009 97.0751 36.0742 97.7471C36.4582 98.4191 36.6502 99.2031 36.6502 100.099ZM33.8502 99.3791C33.8502 98.9098 33.6902 98.5365 33.3702 98.2591C33.0502 97.9818 32.6502 97.8431 32.1702 97.8431C31.7115 97.8431 31.3222 97.9765 31.0022 98.2431C30.6929 98.5098 30.5009 98.8885 30.4262 99.3791H33.8502ZM41.7256 104.835C40.9469 104.835 40.2536 104.702 39.6456 104.435C39.0376 104.168 38.5576 103.806 38.2056 103.347C37.8536 102.878 37.6562 102.355 37.6136 101.779H40.3176C40.3496 102.088 40.4936 102.339 40.7496 102.531C41.0056 102.723 41.3202 102.819 41.6936 102.819C42.0349 102.819 42.2962 102.755 42.4776 102.627C42.6696 102.488 42.7656 102.312 42.7656 102.099C42.7656 101.843 42.6322 101.656 42.3656 101.539C42.0989 101.411 41.6669 101.272 41.0696 101.123C40.4296 100.974 39.8962 100.819 39.4696 100.659C39.0429 100.488 38.6749 100.227 38.3656 99.8751C38.0562 99.5125 37.9016 99.0271 37.9016 98.4191C37.9016 97.9071 38.0402 97.4431 38.3176 97.0271C38.6056 96.6005 39.0216 96.2645 39.5656 96.0191C40.1202 95.7738 40.7762 95.6511 41.5336 95.6511C42.6536 95.6511 43.5336 95.9285 44.1736 96.4831C44.8242 97.0378 45.1976 97.7738 45.2936 98.6911H42.7656C42.7229 98.3818 42.5842 98.1365 42.3496 97.9551C42.1256 97.7738 41.8269 97.6831 41.4536 97.6831C41.1336 97.6831 40.8882 97.7471 40.7176 97.8751C40.5469 97.9925 40.4616 98.1578 40.4616 98.3711C40.4616 98.6271 40.5949 98.8191 40.8616 98.9471C41.1389 99.0751 41.5656 99.2031 42.1416 99.3311C42.8029 99.5018 43.3416 99.6725 43.7576 99.8431C44.1736 100.003 44.5362 100.27 44.8456 100.643C45.1656 101.006 45.3309 101.496 45.3416 102.115C45.3416 102.638 45.1922 103.107 44.8936 103.523C44.6056 103.928 44.1842 104.248 43.6296 104.483C43.0856 104.718 42.4509 104.835 41.7256 104.835ZM48.3914 94.8511C47.9114 94.8511 47.5168 94.7125 47.2074 94.4351C46.9088 94.1471 46.7594 93.7951 46.7594 93.3791C46.7594 92.9525 46.9088 92.6005 47.2074 92.3231C47.5168 92.0351 47.9114 91.8911 48.3914 91.8911C48.8608 91.8911 49.2448 92.0351 49.5434 92.3231C49.8528 92.6005 50.0074 92.9525 50.0074 93.3791C50.0074 93.7951 49.8528 94.1471 49.5434 94.4351C49.2448 94.7125 48.8608 94.8511 48.3914 94.8511ZM49.7514 95.7791V104.707H47.0154V95.7791H49.7514ZM55.1262 95.6511C55.7555 95.6511 56.3049 95.7791 56.7742 96.0351C57.2542 96.2911 57.6222 96.6271 57.8782 97.0431V95.7791H60.6142V104.691C60.6142 105.512 60.4489 106.254 60.1182 106.915C59.7982 107.587 59.3022 108.12 58.6302 108.515C57.9689 108.91 57.1422 109.107 56.1502 109.107C54.8275 109.107 53.7555 108.792 52.9342 108.163C52.1129 107.544 51.6435 106.702 51.5262 105.635H54.2302C54.3155 105.976 54.5182 106.243 54.8382 106.435C55.1582 106.638 55.5529 106.739 56.0222 106.739C56.5875 106.739 57.0355 106.574 57.3662 106.243C57.7075 105.923 57.8782 105.406 57.8782 104.691V103.427C57.6115 103.843 57.2435 104.184 56.7742 104.451C56.3049 104.707 55.7555 104.835 55.1262 104.835C54.3902 104.835 53.7235 104.648 53.1262 104.275C52.5289 103.891 52.0542 103.352 51.7022 102.659C51.3609 101.955 51.1902 101.144 51.1902 100.227C51.1902 99.3098 51.3609 98.5045 51.7022 97.8111C52.0542 97.1178 52.5289 96.5845 53.1262 96.2111C53.7235 95.8378 54.3902 95.6511 55.1262 95.6511ZM57.8782 100.243C57.8782 99.5605 57.6862 99.0218 57.3022 98.6271C56.9289 98.2325 56.4702 98.0351 55.9262 98.0351C55.3822 98.0351 54.9182 98.2325 54.5342 98.6271C54.1609 99.0111 53.9742 99.5445 53.9742 100.227C53.9742 100.91 54.1609 101.454 54.5342 101.859C54.9182 102.254 55.3822 102.451 55.9262 102.451C56.4702 102.451 56.9289 102.254 57.3022 101.859C57.6862 101.464 57.8782 100.926 57.8782 100.243ZM68.0336 95.6831C69.0789 95.6831 69.9109 96.0245 70.5296 96.7071C71.1589 97.3791 71.4736 98.3071 71.4736 99.4911V104.707H68.7536V99.8591C68.7536 99.2618 68.5989 98.7978 68.2896 98.4671C67.9802 98.1365 67.5642 97.9711 67.0416 97.9711C66.5189 97.9711 66.1029 98.1365 65.7936 98.4671C65.4842 98.7978 65.3296 99.2618 65.3296 99.8591V104.707H62.5936V95.7791H65.3296V96.9631C65.6069 96.5685 65.9802 96.2591 66.4496 96.0351C66.9189 95.8005 67.4469 95.6831 68.0336 95.6831Z" fill="white"/>
<defs>
<clipPath id="clip0_90_263">
<rect width="60" height="60" fill="white" transform="translate(14 0.707123)"/>
</clipPath>
</defs>
</svg>
