<svg width="88" height="101" viewBox="0 0 88 101" fill="none" xmlns="http://www.w3.org/2000/svg">
<path d="M36.7256 66.3917C32.6823 65.2545 29.1264 63.1607 26.0217 60.2365C25.0469 60.5794 24.0542 60.9224 23.0433 61.2473C22.574 61.3917 22.1047 61.3375 21.6173 61.157C20.7509 60.8321 20.2274 60.2004 19.8484 59.4242C19.3249 58.3953 18.657 57.4567 18.1336 56.4278C17.6643 55.4711 16.9783 54.6408 16.5812 53.648C16.3827 53.1607 15.8592 52.8357 15.8592 52.222C15.3899 51.4639 15.8412 50.796 16.1119 50.1282C16.1841 49.9477 16.2744 49.713 16.4368 49.6408C17.0866 49.352 17.4116 48.7022 17.9531 48.3051C18.2058 48.1245 18.4765 47.926 18.7653 47.7094C18.3502 45.6336 17.9892 43.5578 17.9892 41.4278C17.9892 39.3159 18.3682 37.2762 18.7653 35.2545C18.0614 34.6047 17.4116 33.9729 16.7256 33.3773C16.0217 32.7635 15.6065 32.0054 15.6968 31.2112C15.7509 30.778 15.8773 30.3087 16.0939 29.9477C16.7617 28.8827 17.3755 27.7635 18.0253 26.6805C18.5487 25.8141 19 24.9116 19.5776 24.0632C19.8845 23.63 20.065 23.1245 20.3718 22.6733C20.9675 21.8249 22.1588 21.4097 23.1336 21.6986C24 21.9513 24.8123 22.3303 25.6968 22.4928C25.787 22.5108 25.8592 22.6372 25.9495 22.7274C29.0722 19.8213 32.6282 17.7455 36.7076 16.5361C36.87 16.0487 36.9061 15.5253 37.1047 15.0199C37.2491 14.6408 37.213 14.1715 37.2852 13.7563C37.4838 12.6733 38.1516 12.0415 39.1083 11.7166C39.4513 11.6083 39.7942 11.5 40.2094 11.5C42.7365 11.5361 45.2635 11.5361 47.7906 11.5C48.5126 11.5 49.1264 11.7888 49.704 12.1137C50.2274 12.3845 50.5162 12.9621 50.6607 13.5036C50.9134 14.4964 51.0578 15.5072 51.2563 16.5542C55.3177 17.7094 58.8736 19.7852 61.9783 22.7094C62.9531 22.3664 63.9459 22.0235 64.9567 21.6986C65.426 21.5542 65.8953 21.6083 66.3827 21.7888C67.2491 22.1137 67.7726 22.7455 68.1516 23.5217C68.6751 24.5505 69.343 25.4892 69.8664 26.5181C70.3357 27.4747 71.0217 28.3051 71.4188 29.2978C71.6173 29.7852 72.1408 30.1101 72.1408 30.7238C72.6101 31.482 72.1588 32.1498 71.8881 32.8177C71.8159 32.9982 71.7256 33.2329 71.5632 33.3051C70.9134 33.5939 70.5885 34.2437 70.0469 34.6408C69.7942 34.8213 69.5235 35.0199 69.2347 35.2365C69.6498 37.3123 70.0108 39.3881 70.0108 41.518C70.0108 43.63 69.6859 45.6697 69.2347 47.6913C69.9386 48.3412 70.5885 48.9729 71.2744 49.5686C71.9783 50.1823 72.3935 50.9404 72.3033 51.7347C72.2491 52.1679 72.1408 52.6372 71.9061 52.9982C71.2563 54.0451 70.6426 55.1282 70.0108 56.1931C69.2166 57.5108 68.5668 58.9368 67.6462 60.1823C67.4838 60.8682 66.8339 60.9224 66.3646 61.1751C65.8592 61.4458 65.3538 61.3736 64.7942 61.2112C63.9639 60.9765 63.1697 60.5614 62.3033 60.4531C62.213 60.435 62.1408 60.3087 62.0505 60.2184C58.9278 63.1607 55.3899 65.2545 51.2563 66.4278C51.0578 67.4025 50.8773 68.4134 50.6607 69.4061C50.444 70.3809 49.7942 70.9946 48.8736 71.2834C48.5307 71.3917 48.1697 71.5 47.7726 71.5C45.2455 71.4639 42.7184 71.4639 40.1913 71.5C39.4693 71.5 38.8556 71.2112 38.278 70.8863C37.7545 70.6155 37.4477 70.0379 37.3394 69.4964C37.1408 68.4314 36.9422 67.4386 36.7256 66.3917ZM37.8989 50.4892C38.2599 50.2906 38.6751 50.1643 38.6931 49.731C38.7292 49.0812 38.8195 48.4134 38.6751 47.7996C38.4224 46.7527 37.9711 45.7419 37.7004 44.6949C37.5199 44.0271 37.1227 43.3953 37.1408 42.6733C36.5632 41.2473 36.2022 39.7491 35.7148 38.3051C35.3177 37.1137 35.0289 35.8863 34.5957 34.713C34.361 34.0632 34.3069 33.3412 33.8736 32.7635C33.8375 32.7094 33.8195 32.6733 33.8195 32.6733C33.3321 32.3484 32.8267 32.4567 32.3935 32.4567C32.1408 32.6913 31.9242 32.8899 31.7256 33.0704C31.7076 33.648 31.2924 34.0993 31.3646 34.6588C30.7329 36.0668 30.4621 37.583 29.9386 39.0271C29.6679 39.7671 29.5054 40.5253 29.2888 41.2834C29.0903 42.0415 28.657 42.7274 28.657 43.5397C27.9711 45.074 27.6282 46.7166 27.1227 48.3231C26.9964 48.7202 26.9242 49.0993 27.1769 49.4783C27.2491 49.5866 27.213 49.7491 27.213 49.731C27.5018 50.0379 27.7184 50.2545 27.8989 50.4711C28.2419 50.4711 28.6029 50.4711 28.982 50.4711C29.2347 50.1462 29.4874 49.8394 29.722 49.5325C29.6679 48.5036 29.8845 47.8177 30.3538 46.7166C32.1227 46.7166 33.8917 46.7166 35.6607 46.7166C35.8051 47.2942 35.8773 47.8538 36.0758 48.3773C36.1661 48.5939 36.2563 48.8105 36.2202 49.0271C36.1661 49.6949 36.3827 50.2184 37.1408 50.4711C37.3213 50.4892 37.5921 50.4892 37.8989 50.4892ZM42.1227 50.4892C42.6101 50.4531 43.1697 50.5975 43.5668 50.2004C43.7112 50.0199 43.8375 49.8394 44.0181 49.5866C44.0181 47.7816 44.0181 45.8863 44.0181 43.991C45.3357 43.991 46.6354 43.9368 47.917 44.009C48.6931 44.0451 49.3249 43.8105 49.9386 43.4314C50.2274 43.2509 50.4801 42.9801 50.7329 42.7274C51.4007 42.0776 51.7256 41.2834 51.7437 40.3448C51.7437 38.8646 51.7437 37.4025 51.7437 35.9224C51.7437 35.7058 51.6895 35.4711 51.6354 35.2545C51.4368 34.4783 51.0217 33.9007 50.4621 33.3953C49.8123 32.7996 49.0542 32.4386 48.1516 32.4386C46.13 32.4386 44.1264 32.4386 42.0866 32.4386C41.8881 32.6552 41.6895 32.8718 41.4549 33.0884C41.4549 38.648 41.4549 44.2437 41.4549 49.8574C41.6895 50.056 41.9061 50.2726 42.1227 50.4892ZM55.1191 50.4892C56.3646 50.4892 57.6282 50.4892 58.8736 50.4892C59.0903 50.2726 59.3069 50.056 59.5235 49.8574C59.5235 49.5144 59.5235 49.1895 59.5235 48.8466C59.5235 48.8105 59.5235 48.7924 59.5235 48.7744C59.2527 48.269 58.8375 47.9621 58.296 47.9079C58.296 43.5939 58.296 39.2978 58.296 35.0921C58.6931 34.8935 59.0361 34.713 59.4332 34.4964C59.4874 34.0271 59.5235 33.5397 59.5596 33.1968C59.2708 32.8718 59.0722 32.6372 58.9097 32.4567C57.6101 32.4567 56.3466 32.4567 55.2274 32.4567C54.9206 32.7274 54.704 32.926 54.4332 33.1787C54.4874 33.6119 54.5596 34.0993 54.6137 34.5144C55.0469 34.731 55.3899 34.9116 55.6968 35.074C55.6968 39.37 55.6968 43.6661 55.6968 47.926C55.5162 47.9621 55.3177 47.926 55.2455 48.0162C54.9928 48.269 54.5596 48.3412 54.4693 48.7563C54.4693 49.1173 54.4693 49.4783 54.4693 49.8394C54.6859 50.056 54.9025 50.2726 55.1191 50.4892Z" fill="white"/>
<path d="M34.7039 43.9546C33.6389 43.9907 32.5198 44.0088 31.4006 44.0449C31.3645 44.0449 31.3104 44.1171 31.2021 44.2073C31.2201 43.0882 31.8519 42.1857 31.9241 41.1568C32.4656 40.2543 32.5198 39.1893 32.8808 38.1785C32.9891 38.2868 33.1515 38.3951 33.1515 38.4853C33.1696 39.2615 33.6208 39.9294 33.7652 40.6694C33.8736 41.1749 34.1624 41.6622 34.2346 42.1676C34.3068 42.8175 34.74 43.3048 34.7039 43.9546Z" fill="white"/>
<path d="M49.2349 40.4534C49.1085 40.6519 49.0002 40.8505 48.8558 41.031C48.6031 41.3198 48.2782 41.4823 47.863 41.4642C46.5995 41.4462 45.3359 41.4642 44.0363 41.4642C44.0363 39.3162 44.0363 37.1682 44.0363 34.966C45.354 34.966 46.7078 34.948 48.0435 34.966C48.6753 34.9841 49.2168 35.6339 49.2349 36.3198C49.2349 37.457 49.2349 38.5942 49.2349 39.7314C49.2349 39.9841 49.2349 40.2187 49.2349 40.4534Z" fill="white"/>
<path d="M14.22 96.5L11.884 92.26H11.228V96.5H8.492V85.268H13.084C13.9693 85.268 14.7213 85.4227 15.34 85.732C15.9693 86.0413 16.4387 86.468 16.748 87.012C17.0573 87.5453 17.212 88.1427 17.212 88.804C17.212 89.5507 16.9987 90.2173 16.572 90.804C16.156 91.3907 15.5373 91.8067 14.716 92.052L17.308 96.5H14.22ZM11.228 90.324H12.924C13.4253 90.324 13.7987 90.2013 14.044 89.956C14.3 89.7107 14.428 89.364 14.428 88.916C14.428 88.4893 14.3 88.1533 14.044 87.908C13.7987 87.6627 13.4253 87.54 12.924 87.54H11.228V90.324ZM27.3455 91.892C27.3455 92.148 27.3295 92.4147 27.2975 92.692H21.1055C21.1482 93.2467 21.3242 93.6733 21.6335 93.972C21.9535 94.26 22.3428 94.404 22.8015 94.404C23.4842 94.404 23.9588 94.116 24.2255 93.54H27.1375C26.9882 94.1267 26.7162 94.6547 26.3215 95.124C25.9375 95.5933 25.4522 95.9613 24.8655 96.228C24.2788 96.4947 23.6228 96.628 22.8975 96.628C22.0228 96.628 21.2442 96.4413 20.5615 96.068C19.8788 95.6947 19.3455 95.1613 18.9615 94.468C18.5775 93.7747 18.3855 92.964 18.3855 92.036C18.3855 91.108 18.5722 90.2973 18.9455 89.604C19.3295 88.9107 19.8628 88.3773 20.5455 88.004C21.2282 87.6307 22.0122 87.444 22.8975 87.444C23.7615 87.444 24.5295 87.6253 25.2015 87.988C25.8735 88.3507 26.3962 88.868 26.7695 89.54C27.1535 90.212 27.3455 90.996 27.3455 91.892ZM24.5455 91.172C24.5455 90.7027 24.3855 90.3293 24.0655 90.052C23.7455 89.7747 23.3455 89.636 22.8655 89.636C22.4068 89.636 22.0175 89.7693 21.6975 90.036C21.3882 90.3027 21.1962 90.6813 21.1215 91.172H24.5455ZM32.4209 96.628C31.6422 96.628 30.9489 96.4947 30.3409 96.228C29.7329 95.9613 29.2529 95.5987 28.9009 95.14C28.5489 94.6707 28.3515 94.148 28.3089 93.572H31.0129C31.0449 93.8813 31.1889 94.132 31.4449 94.324C31.7009 94.516 32.0155 94.612 32.3889 94.612C32.7302 94.612 32.9915 94.548 33.1729 94.42C33.3649 94.2813 33.4609 94.1053 33.4609 93.892C33.4609 93.636 33.3275 93.4493 33.0609 93.332C32.7942 93.204 32.3622 93.0653 31.7649 92.916C31.1249 92.7667 30.5915 92.612 30.1649 92.452C29.7382 92.2813 29.3702 92.02 29.0609 91.668C28.7515 91.3053 28.5969 90.82 28.5969 90.212C28.5969 89.7 28.7355 89.236 29.0129 88.82C29.3009 88.3933 29.7169 88.0573 30.2609 87.812C30.8155 87.5667 31.4715 87.444 32.2289 87.444C33.3489 87.444 34.2289 87.7213 34.8689 88.276C35.5195 88.8307 35.8929 89.5667 35.9889 90.484H33.4609C33.4182 90.1747 33.2795 89.9293 33.0449 89.748C32.8209 89.5667 32.5222 89.476 32.1489 89.476C31.8289 89.476 31.5835 89.54 31.4129 89.668C31.2422 89.7853 31.1569 89.9507 31.1569 90.164C31.1569 90.42 31.2902 90.612 31.5569 90.74C31.8342 90.868 32.2609 90.996 32.8369 91.124C33.4982 91.2947 34.0369 91.4653 34.4529 91.636C34.8689 91.796 35.2315 92.0627 35.5409 92.436C35.8609 92.7987 36.0262 93.2893 36.0369 93.908C36.0369 94.4307 35.8875 94.9 35.5889 95.316C35.3009 95.7213 34.8795 96.0413 34.3249 96.276C33.7809 96.5107 33.1462 96.628 32.4209 96.628ZM42.6868 94.18V96.5H41.2948C40.3028 96.5 39.5294 96.26 38.9748 95.78C38.4201 95.2893 38.1428 94.4947 38.1428 93.396V89.844H37.0548V87.572H38.1428V85.396H40.8788V87.572H42.6708V89.844H40.8788V93.428C40.8788 93.6947 40.9428 93.8867 41.0708 94.004C41.1988 94.1213 41.4121 94.18 41.7108 94.18H42.6868ZM51.0908 89.748V92.02H44.0508V89.748H51.0908ZM60.484 94.516H56.292L55.62 96.5H52.756L56.82 85.268H59.988L64.052 96.5H61.156L60.484 94.516ZM59.78 92.404L58.388 88.292L57.012 92.404H59.78ZM68.0249 88.836C68.2915 88.42 68.6595 88.084 69.1289 87.828C69.5982 87.572 70.1475 87.444 70.7769 87.444C71.5129 87.444 72.1795 87.6307 72.7769 88.004C73.3742 88.3773 73.8435 88.9107 74.1849 89.604C74.5369 90.2973 74.7129 91.1027 74.7129 92.02C74.7129 92.9373 74.5369 93.748 74.1849 94.452C73.8435 95.1453 73.3742 95.684 72.7769 96.068C72.1795 96.4413 71.5129 96.628 70.7769 96.628C70.1582 96.628 69.6089 96.5 69.1289 96.244C68.6595 95.988 68.2915 95.6573 68.0249 95.252V100.756H65.2889V87.572H68.0249V88.836ZM71.9289 92.02C71.9289 91.3373 71.7369 90.804 71.3529 90.42C70.9795 90.0253 70.5155 89.828 69.9609 89.828C69.4169 89.828 68.9529 90.0253 68.5689 90.42C68.1955 90.8147 68.0089 91.3533 68.0089 92.036C68.0089 92.7187 68.1955 93.2573 68.5689 93.652C68.9529 94.0467 69.4169 94.244 69.9609 94.244C70.5049 94.244 70.9689 94.0467 71.3529 93.652C71.7369 93.2467 71.9289 92.7027 71.9289 92.02ZM77.5243 86.644C77.0443 86.644 76.6496 86.5053 76.3403 86.228C76.0416 85.94 75.8923 85.588 75.8923 85.172C75.8923 84.7453 76.0416 84.3933 76.3403 84.116C76.6496 83.828 77.0443 83.684 77.5243 83.684C77.9936 83.684 78.3776 83.828 78.6763 84.116C78.9856 84.3933 79.1403 84.7453 79.1403 85.172C79.1403 85.588 78.9856 85.94 78.6763 86.228C78.3776 86.5053 77.9936 86.644 77.5243 86.644ZM78.8843 87.572V96.5H76.1483V87.572H78.8843Z" fill="white"/>
</svg>
