<svg width="88" height="101" viewBox="0 0 88 101" fill="none" xmlns="http://www.w3.org/2000/svg">
<path fill-rule="evenodd" clip-rule="evenodd" d="M74.6942 27.471L69.0124 35.4155L63.3306 27.471H66.4285C66.1924 21.5682 61.3163 16.846 55.3567 16.846C50.3278 16.846 46.063 20.221 44.7155 24.8182C43.0763 24.2905 41.3814 23.9571 39.6588 23.8043C39.8533 23.0682 40.1034 22.3321 40.409 21.6238C41.2286 19.6932 42.3955 17.9571 43.882 16.471C45.3684 14.9849 47.1049 13.8043 49.0359 12.9988C51.0363 12.1377 53.1618 11.7071 55.3567 11.7071C57.5516 11.7071 59.6771 12.1377 61.6775 12.9849C63.6085 13.8043 65.345 14.971 66.8314 16.4571C68.3178 17.9432 69.4848 19.6793 70.3044 21.6099C71.0962 23.471 71.5269 25.4432 71.5685 27.471H74.6942Z" fill="white"/>
<path fill-rule="evenodd" clip-rule="evenodd" d="M66.748 71.707V68.2903H47.1605C47.2994 68.2209 47.4383 68.1653 47.5772 68.0959C49.7027 67.082 51.6614 65.7626 53.4118 64.1515C53.648 63.9292 53.8702 63.7209 54.0786 63.5126C54.3148 63.2765 54.5648 63.0265 54.801 62.7626C55.0788 62.457 55.3567 62.1376 55.6067 61.8181H66.748V58.4015L76.0556 65.0542L66.748 71.707Z" fill="white"/>
<path fill-rule="evenodd" clip-rule="evenodd" d="M59.5242 47.0266C59.5242 49.9849 58.9408 52.8599 57.8016 55.5682C56.8292 57.8738 55.4678 59.9849 53.773 61.8321C53.5507 62.0682 53.3284 62.3043 53.1062 62.5405C52.8978 62.7488 52.6894 62.9432 52.481 63.1516C50.8418 64.6655 49.008 65.9016 47.0076 66.8599C46.7298 66.9988 46.438 67.1238 46.1463 67.2488C46.1324 67.2488 46.1324 67.2627 46.1185 67.2627C44.4515 67.971 42.6594 68.3182 40.8396 68.3182H11.9445V61.8599H38.7697C46.8826 61.8599 53.5368 55.3738 53.6479 47.2627C53.6479 47.1932 53.6479 47.1238 53.6479 47.0543C53.6479 38.1932 46.4519 30.9988 37.5889 30.9988C28.7259 30.971 21.5299 38.1516 21.5299 47.0266H25.2529L18.5987 56.3321L11.9445 47.0266H15.6675C15.6675 44.0682 16.2509 41.1932 17.3901 38.4849C18.5014 35.8738 20.0712 33.5266 22.0855 31.5127C24.0999 29.4988 26.4476 27.9155 29.0593 26.8182C31.7682 25.6793 34.6438 25.096 37.6028 25.096C38.2001 25.096 38.7836 25.1238 39.3671 25.1655C41.0897 25.3043 42.7706 25.6377 44.4098 26.1793C44.9933 26.3738 45.5629 26.5821 46.1324 26.8321C48.7441 27.9432 51.0918 29.5127 53.1062 31.5266C55.1205 33.5405 56.7042 35.8877 57.8016 38.4988C58.9408 41.1932 59.5242 44.0682 59.5242 47.0266Z" fill="white"/>
<path d="M21.556 96.8191C20.7347 96.8191 19.9987 96.6858 19.348 96.4191C18.6973 96.1525 18.1747 95.7578 17.78 95.2351C17.396 94.7125 17.1933 94.0831 17.172 93.3471H20.084C20.1267 93.7631 20.2707 94.0831 20.516 94.3071C20.7613 94.5205 21.0813 94.6271 21.476 94.6271C21.8813 94.6271 22.2013 94.5365 22.436 94.3551C22.6707 94.1631 22.788 93.9018 22.788 93.5711C22.788 93.2938 22.692 93.0645 22.5 92.8831C22.3187 92.7018 22.0893 92.5525 21.812 92.4351C21.5453 92.3178 21.1613 92.1845 20.66 92.0351C19.9347 91.8111 19.3427 91.5871 18.884 91.3631C18.4253 91.1391 18.0307 90.8085 17.7 90.3711C17.3693 89.9338 17.204 89.3631 17.204 88.6591C17.204 87.6138 17.5827 86.7978 18.34 86.2111C19.0973 85.6138 20.084 85.3151 21.3 85.3151C22.5373 85.3151 23.5347 85.6138 24.292 86.2111C25.0493 86.7978 25.4547 87.6191 25.508 88.6751H22.548C22.5267 88.3125 22.3933 88.0298 22.148 87.8271C21.9027 87.6138 21.588 87.5071 21.204 87.5071C20.8733 87.5071 20.6067 87.5978 20.404 87.7791C20.2013 87.9498 20.1 88.2005 20.1 88.5311C20.1 88.8938 20.2707 89.1765 20.612 89.3791C20.9533 89.5818 21.4867 89.8005 22.212 90.0351C22.9373 90.2805 23.524 90.5151 23.972 90.7391C24.4307 90.9631 24.8253 91.2885 25.156 91.7151C25.4867 92.1418 25.652 92.6911 25.652 93.3631C25.652 94.0031 25.4867 94.5845 25.156 95.1071C24.836 95.6298 24.3667 96.0458 23.748 96.3551C23.1293 96.6645 22.3987 96.8191 21.556 96.8191ZM26.7918 92.2431C26.7918 91.3151 26.9784 90.5045 27.3518 89.8111C27.7358 89.1178 28.2638 88.5845 28.9358 88.2111C29.6184 87.8378 30.3971 87.6511 31.2718 87.6511C32.3918 87.6511 33.3251 87.9445 34.0718 88.5311C34.8291 89.1178 35.3251 89.9445 35.5598 91.0111H32.6478C32.4024 90.3285 31.9278 89.9871 31.2238 89.9871C30.7224 89.9871 30.3224 90.1845 30.0238 90.5791C29.7251 90.9631 29.5758 91.5178 29.5758 92.2431C29.5758 92.9685 29.7251 93.5285 30.0238 93.9231C30.3224 94.3071 30.7224 94.4991 31.2238 94.4991C31.9278 94.4991 32.4024 94.1578 32.6478 93.4751H35.5598C35.3251 94.5205 34.8291 95.3418 34.0718 95.9391C33.3144 96.5365 32.3811 96.8351 31.2718 96.8351C30.3971 96.8351 29.6184 96.6485 28.9358 96.2751C28.2638 95.9018 27.7358 95.3685 27.3518 94.6751C26.9784 93.9818 26.7918 93.1711 26.7918 92.2431ZM39.7593 89.2671C40.0793 88.7765 40.4793 88.3925 40.9593 88.1151C41.4393 87.8271 41.9726 87.6831 42.5593 87.6831V90.5791H41.8073C41.1246 90.5791 40.6126 90.7285 40.2713 91.0271C39.9299 91.3151 39.7593 91.8271 39.7593 92.5631V96.7071H37.0233V87.7791H39.7593V89.2671ZM52.683 87.7791V96.7071H49.947V95.4911C49.6697 95.8858 49.291 96.2058 48.811 96.4511C48.3417 96.6858 47.819 96.8031 47.243 96.8031C46.5603 96.8031 45.9577 96.6538 45.435 96.3551C44.9123 96.0458 44.507 95.6031 44.219 95.0271C43.931 94.4511 43.787 93.7738 43.787 92.9951V87.7791H46.507V92.6271C46.507 93.2245 46.6617 93.6885 46.971 94.0191C47.2803 94.3498 47.6963 94.5151 48.219 94.5151C48.7523 94.5151 49.1737 94.3498 49.483 94.0191C49.7923 93.6885 49.947 93.2245 49.947 92.6271V87.7791H52.683ZM66.0403 87.6831C67.1496 87.6831 68.0296 88.0191 68.6803 88.6911C69.3416 89.3631 69.6723 90.2965 69.6723 91.4911V96.7071H66.9523V91.8591C66.9523 91.2831 66.7976 90.8405 66.4883 90.5311C66.1896 90.2111 65.7736 90.0511 65.2403 90.0511C64.7069 90.0511 64.2856 90.2111 63.9763 90.5311C63.6776 90.8405 63.5283 91.2831 63.5283 91.8591V96.7071H60.8083V91.8591C60.8083 91.2831 60.6536 90.8405 60.3443 90.5311C60.0456 90.2111 59.6296 90.0511 59.0963 90.0511C58.5629 90.0511 58.1416 90.2111 57.8323 90.5311C57.5336 90.8405 57.3843 91.2831 57.3843 91.8591V96.7071H54.6483V87.7791H57.3843V88.8991C57.6616 88.5258 58.0243 88.2325 58.4723 88.0191C58.9203 87.7951 59.4269 87.6831 59.9923 87.6831C60.6643 87.6831 61.2616 87.8271 61.7843 88.1151C62.3176 88.4031 62.7336 88.8138 63.0323 89.3471C63.3416 88.8565 63.7629 88.4565 64.2963 88.1471C64.8296 87.8378 65.4109 87.6831 66.0403 87.6831Z" fill="white"/>
</svg>
