<?xml version='1.0' encoding='utf-8'?>
<svg xmlns="http://www.w3.org/2000/svg" width="385.93px" height="311.85px" enable-background="new 0 0 385.926 311.852" version="1.1" viewBox="0 0 385.926 311.852">
	<path d="m357.65 117.91c1.404 7.416 7.947 16.662 10.251 23.584 2.312 6.918 8.719 17.429 11.536 21.012 2.813 3.593 3.328 5.898 3.328 12.048 0 6.156 1.285 11.536 1.026 13.838-5.89-1.022-13.84-1.277-20.76-1.53-5.118-0.19-3.33 3.328-8.969 2.56-22.044-1.539-27.681-2.307-40.492 0.768-12.817 3.079-23.069 7.435-33.581 4.355-8.937-2.616-13.323-5.635-26.912-5.635-13.58 0-16.914 7.688-35.37 5.635-18.447-2.049-34.062-2.222-42.539-0.254-11.024 2.561-25.125 1.799-29.219 1.025-6.632-1.246-22.554-2.819-29.989 1.282-8.969 4.945-16.404 2.566-22.303 1.028-5.889-1.536-14.601-4.106-26.391-0.256-11.791 3.851-38.707 6.149-45.109 6.149l2.815-69.717c-0.707-25.516-0.768-27.638-0.768-27.68l-12.318-57.659-13.323-40.844c7.665-1.352 11.746 0.701 14.882 0.903 4.103 0.25 22.023 4.821 35.098 4.056 13.071-0.77 29.213 0.514 33.829 1.025 4.616 0.513 19.997 1.791 24.865 1.791 4.863 0 19.862-0.765 24.729-0.253 4.362 0 16.789-0.262 22.429 0.769 5.637 1.025 8.964 1.795 12.811 2.053 3.85 0.255 4.874-0.773 23.068 2.562 18.2 3.328 56.132 14.865 76.636 17.938 8.751 1.313 18.198 3.332 26.397 2.823 8.203-0.513 40.494-5.896 48.441-7.182 0 0 4.101-1.022 5.386 3.596 2.098 7.572-1.029 19.224-2.056 23.581-1.027 4.349 0.507 9.219 3.846 11.526 3.329 2.308 6.663 2.566 7.18 10.512 0.5 7.949-0.27 25.133 1.52 34.593z" fill="#fff"/>
	<path d="m30.407 103.65c4.437 1.23 14.286 1.482 22.177 0 7.879-1.474 13.051-2.464 23.397-0.496 10.347 1.979 22.167 1.235 31.531-0.482 9.362-1.729 9.362-1.486 15.519 1.472 6.159 2.955 31.535 1.046 33.996 0.063-0.74-5.419-3.943-15.09-4.928-20.51-0.983-5.418-3.94-19.216-4.681-23.401-0.735-4.19-1.228-10.596-0.735-14.539 0.491-3.941-2.712-4.677-4.441-5.664-1.718-0.988-3.69-0.736-4.923-6.9-1.232-6.154-2.464-9.606-2.706-10.838-0.251-1.232-0.496-2.707-0.496-3.696-4.683-0.492-18.966 0.249-23.651 0.249-4.681 0-19.467-1.229-23.895-1.727-4.433-0.488-19.958-1.726-32.515-0.983-12.567 0.739-33.26-3.207-37.203-3.45-3.941-0.25-5.663-1.725-11.824 0 0 0 14.783 40.649 15.029 40.894 0.255 0.255 10.355 50.015 10.355 50.015z" fill="#291876"/>
	<path d="m20.93 19.812l2.987-0.408 4e-3 0.02-2.183 1.951 1.284 2.457-0.019 0.019-2.593-1.279-2.152 1.929-0.022-0.017 0.586-2.714-2.642-1.29v-0.014l2.969-0.413 0.542-2.658 0.019-1e-3 1.22 2.418z" fill="#fff"/>
	<path d="m26.109 36.564l2.975-0.41 4e-3 0.022-2.175 1.945 1.285 2.462-0.021 0.021-2.593-1.28-2.157 1.928-0.017-0.019 0.586-2.71-2.642-1.294-3e-3 -0.015 2.968-0.406 0.547-2.662 0.023-1e-3 1.22 2.419z" fill="#fff"/>
	<path d="m31.88 54.284l3.015-0.095v0.022l-2.377 1.831 1.012 2.773-0.016 0.027-2.443-1.666-2.345 1.818-0.019-0.025 0.87-2.833-2.492-1.679v-0.022l2.998-0.098 0.824-2.776h0.021l0.952 2.723z" fill="#fff"/>
	<path d="m35.199 72.684l2.989-0.339 2e-3 0.017-2.214 2.029 1.239 2.678-0.019 0.025-2.57-1.458-2.186 2.001-0.022-0.02 0.633-2.892-2.62-1.472-5e-3 -0.021 2.984-0.343 0.59-2.837 0.021-5e-3 1.178 2.637z" fill="#fff"/>
	<path d="m39.833 94.475l2.981-0.402 4e-3 0.017-2.169 2.112 1.302 2.713-0.017 0.027-2.606-1.439-2.141 2.079-0.024-0.013 0.572-2.974-2.66-1.449-1e-3 -0.021 2.975-0.402 0.526-2.913 0.022-4e-3 1.236 2.669z" fill="#fff"/>
	<path d="m48.575 81.348l2.932-0.683 7e-3 0.021-1.969 2.307 1.552 2.582-0.015 0.021-2.728-1.186-1.934 2.273-0.025-0.012 0.293-3.013-2.785-1.198-6e-3 -0.017 2.922-0.687 0.258-2.939 0.018-5e-3 1.48 2.536z" fill="#fff"/>
	<path d="m44.486 62.535l2.966-0.518 4e-3 0.016-2.092 2.162 1.399 2.596-0.01 0.028-2.654-1.304-2.069 2.133-0.022-0.022 0.462-2.924-2.705-1.313-6e-3 -0.022 2.957-0.518 0.421-2.866 0.023-4e-3 1.326 2.556z" fill="#fff"/>
	<path d="m40.903 44.124l2.988-0.35 1e-3 0.022-2.207 2.029 1.245 2.68-0.017 0.02-2.57-1.449-2.184 2.006-0.024-0.017 0.627-2.893-2.626-1.465-3e-3 -0.022 2.98-0.349 0.587-2.837 0.022-5e-3 1.181 2.63z" fill="#fff"/>
	<path d="m35.63 28.396l2.943-0.603 4e-3 0.02-2.045 2.09 1.442 2.367-0.016 0.025-2.667-1.107-2.028 2.064-0.021-0.013 0.41-2.751-2.729-1.113-2e-3 -0.018 2.943-0.602 0.37-2.687 0.018-2e-3 1.378 2.33z" fill="#fff"/>
	<path d="m44.826 21.289l2.984-0.407 5e-3 0.02-2.184 1.952 1.285 2.458-0.018 0.018-2.593-1.277-2.15 1.933-0.025-0.018 0.588-2.713-2.644-1.29-2e-3 -0.018 2.971-0.41 0.547-2.657 0.016-4e-3 1.22 2.413z" fill="#fff"/>
	<path d="m49.259 35.088l2.987-0.412 2e-3 0.021-2.183 1.951 1.287 2.458-0.021 0.019-2.592-1.277-2.152 1.93-0.018-0.018 0.583-2.711-2.642-1.295-5e-3 -0.017 2.978-0.405 0.543-2.66 0.021-3e-3 1.212 2.419z" fill="#fff"/>
	<path d="m53.806 52.561l3.009-0.1v0.029l-2.375 1.83 1.017 2.774-0.018 0.021-2.44-1.662-2.349 1.814-0.021-0.021 0.876-2.833-2.494-1.688v-0.013l3-0.092 0.823-2.786h0.021l0.951 2.727z" fill="#fff"/>
	<path d="m58.846 71.457l2.996-0.344 1e-3 0.017-2.221 2.026 1.243 2.686-0.017 0.02-2.574-1.453-2.184 1.999-0.026-0.02 0.641-2.898-2.625-1.47-2e-3 -0.021 2.983-0.339 0.589-2.841h0.022l1.174 2.638z" fill="#fff"/>
	<path d="m60.522 91.519l2.985-0.405 3e-3 0.02-2.169 2.111 1.302 2.715-0.017 0.024-2.606-1.44-2.143 2.085-0.021-0.012 0.57-2.973-2.653-1.459-8e-3 -0.018 2.978-0.407 0.527-2.908 0.019-5e-3 1.233 2.672z" fill="#fff"/>
	<path d="m72.16 79.474l2.999-0.33 3e-3 0.016-2.224 2.058 1.237 2.746-0.024 0.021-2.564-1.503-2.196 2.031-0.021-0.016 0.642-2.957-2.618-1.519v-0.021l2.979-0.325 0.601-2.897 0.023-3e-3 1.163 2.699z" fill="#fff"/>
	<path d="m66.66 61.549l2.966-0.52 3e-3 0.024-2.093 2.155 1.399 2.599-0.015 0.023-2.654-1.298-2.06 2.128-0.031-0.016 0.467-2.93-2.707-1.314-2e-3 -0.018 2.951-0.518 0.423-2.87h0.023l1.33 2.555z" fill="#fff"/>
	<path d="m62.409 42.952l3-0.192 2e-3 0.02-2.317 1.913 1.114 2.746-0.024 0.015-2.492-1.58-2.288 1.888-0.022-0.019 0.781-2.859-2.549-1.598v-0.023l2.998-0.196 0.732-2.803 0.021-1e-3 1.044 2.689z" fill="#fff"/>
	<path d="m57.188 27.701l2.8-0.417v0.017l-2.024 1.862 1.232 2.299-0.02 0.019-2.454-1.174-2.002 1.832-0.022-0.013 0.527-2.555-2.504-1.19v-0.017l2.788-0.415 0.486-2.509 0.022-2e-3 1.171 2.263z" fill="#fff"/>
	<path d="m65.111 21.075l2.279-0.752 3e-3 0.016-1.39 1.909 1.421 1.839-6e-3 0.018-2.254-0.692-1.367 1.894-0.022-0.015 5e-3 -2.31-2.294-0.688-4e-3 -0.019 2.27-0.75-0.023-2.265 0.02-4e-3 1.362 1.819z" fill="#fff"/>
	<path d="m71.776 35.187l2.813-0.361 1e-3 0.014-2.062 1.94 1.214 2.512-0.018 0.021-2.441-1.335-2.032 1.915-0.028-0.017 0.559-2.733-2.495-1.352-1e-3 -0.013 2.808-0.369 0.513-2.688 0.021-1e-3 1.148 2.467z" fill="#fff"/>
	<path d="m76.211 53.664l2.811-0.364 2e-3 0.018-2.057 1.941 1.211 2.506-0.022 0.024-2.44-1.334-2.037 1.921-0.02-0.021 0.56-2.735-2.494-1.349-3e-3 -0.017 2.808-0.364 0.51-2.688h0.02l1.151 2.462z" fill="#fff"/>
	<path d="m82.623 91.597l3.011-0.055v0.021l-2.402 1.844 0.979 2.848-0.021 0.013-2.419-1.729-2.367 1.823-0.022-0.021 0.913-2.879-2.47-1.754v-0.023l2.998-0.053 0.864-2.829h0.021l0.915 2.794z" fill="#fff"/>
	<path d="m82.265 68.878l2.992-0.332v0.021l-2.223 2.056 1.24 2.745-0.022 0.021-2.567-1.501-2.193 2.036-0.021-0.026 0.643-2.946-2.618-1.521-3e-3 -0.022 2.984-0.332 0.595-2.895h0.028l1.165 2.696z" fill="#fff"/>
	<path d="m92.609 80.458l2.996-0.33 1e-3 0.02-2.227 2.059 1.237 2.738-0.02 0.028-2.559-1.505-2.2 2.032-0.021-0.022 0.645-2.95-2.619-1.524v-0.016l2.978-0.33 0.603-2.899 0.017-2e-3 1.169 2.701z" fill="#fff"/>
	<path d="m90.621 60.889l2.992-0.339 2e-3 0.02-2.22 2.02 1.24 2.683-0.018 0.021-2.57-1.458-2.19 1.997-0.024-0.018 0.645-2.896-2.623-1.475-1e-3 -0.021 2.982-0.335 0.597-2.837 0.02-4e-3 1.168 2.642z" fill="#fff"/>
	<path d="m83.988 44.684l2.979-0.459 1e-3 0.023-2.136 2.111 1.346 2.629-0.014 0.021-2.63-1.353-2.107 2.084-0.022-0.015 0.521-2.921-2.683-1.364-2e-3 -0.018 2.969-0.463 0.477-2.859 0.027-3e-3 1.274 2.587z" fill="#fff"/>
	<path d="m80.045 28.558l2.497-0.542v0.013l-1.696 1.898 1.28 2.153-0.017 0.022-2.29-1.008-1.674 1.877-0.022-0.016 0.291-2.495-2.335-1.021-2e-3 -0.013 2.48-0.545 0.255-2.44 0.018-1e-3 1.215 2.118z" fill="#fff"/>
	<path d="m104.25 91.326l3.005-0.17 2e-3 0.021-2.335 1.93 1.085 2.811-0.019 0.02-2.48-1.641-2.296 1.909-0.022-0.016 0.8-2.917-2.533-1.655-1e-3 -0.02 3-0.173 0.754-2.854 0.016-5e-3 1.03 2.76z" fill="#fff"/>
	<path d="m122.48 90.969l2.988 0.359-2e-3 0.017-2.625 1.503 0.574 2.956-0.02 0.012-2.163-2.045-2.594 1.475-0.02-0.017 1.298-2.735-2.206-2.072 3e-3 -0.016 2.976 0.351 1.243-2.686 0.023 5e-3 0.53 2.893z" fill="#fff"/>
	<path d="m140.18 94.021l3.006-0.232v0.017l-2.295 1.982 1.151 2.788-0.026 0.021-2.512-1.59-2.26 1.955-0.024-0.016 0.743-2.932-2.567-1.602-3e-3 -0.022 2.996-0.231 0.698-2.872h0.02l1.06 2.734z" fill="#fff"/>
	<path d="m111.9 80.739l3.003-0.185 6e-3 0.023-2.328 1.939 1.1 2.809-0.021 0.017-2.485-1.628-2.297 1.915-0.022-0.017 0.794-2.922-2.54-1.645-2e-3 -0.016 2.996-0.183 0.739-2.862 0.024-3e-3 1.03 2.758z" fill="#fff"/>
	<path d="m131.64 82.48l3.006-0.118v0.024l-2.361 1.886 1.036 2.829-0.023 0.021-2.447-1.683-2.338 1.861-0.02-0.017 0.854-2.901-2.501-1.705v-0.017l3-0.114 0.802-2.845h0.024l0.97 2.779z" fill="#fff"/>
	<path d="m102.72 68.891l3-0.283v0.024l-2.257 2.014 1.191 2.764-0.02 0.022-2.539-1.543-2.229 1.992-0.023-0.016 0.698-2.942-2.6-1.561v-0.027l2.99-0.276 0.644-2.882 0.021-3e-3 1.13 2.717z" fill="#fff"/>
	<path d="m121.07 71.154l3.006-0.08v0.026l-2.388 1.857 1 2.839-0.021 0.021-2.429-1.715-2.358 1.839-0.022-0.02 0.894-2.887-2.481-1.736v-0.016l2.995-0.082 0.844-2.836h0.02l0.95 2.79z" fill="#fff"/>
	<path d="m140.28 72.135l3.017-0.072v0.021l-2.394 1.857 1.005 2.839-0.027 0.028-2.429-1.719-2.36 1.835-0.014-0.017 0.887-2.891-2.48-1.725-2e-3 -0.027 3-0.081 0.84-2.827 0.029-5e-3 0.91 2.784z" fill="#fff"/>
	<path d="m111.71 60.954l3.008-0.061v0.027l-2.397 1.807 0.976 2.786-0.021 0.016-2.421-1.698-2.368 1.781-0.018-0.017 0.912-2.822-2.47-1.72v-0.02l3.001-0.049 0.863-2.766h0.021l0.92 2.736z" fill="#fff"/>
	<path d="m129.45 63.413l3.015-0.051v0.022l-2.408 1.802 0.979 2.786-0.022 0.02-2.416-1.697-2.371 1.78-0.021-0.014 0.914-2.829-2.47-1.713v-0.019l2.998-0.054 0.866-2.769h0.022l0.92 2.736z" fill="#fff"/>
	<path d="m97.393 51.939l2.817-0.371 1e-3 0.027-2.06 1.942 1.212 2.502-0.019 0.024-2.443-1.334-2.026 1.919-0.022-0.021 0.557-2.734-2.496-1.345-4e-3 -0.02 2.805-0.37 0.518-2.678 0.016-4e-3 1.145 2.463z" fill="#fff"/>
	<path d="m119.46 53.354l2.714-0.352 2e-3 0.018-1.984 1.866 1.163 2.407-0.014 0.026-2.35-1.283-1.955 1.842-0.022-0.016 0.538-2.633-2.396-1.294-1e-3 -0.017 2.694-0.352 0.498-2.583 0.014-3e-3 1.1 2.374z" fill="#fff"/>
	<path d="m138.11 55.217l2.611-0.334 3e-3 0.012-1.915 1.801 1.126 2.323-0.016 0.02-2.267-1.236-1.882 1.78-0.023-0.018 0.522-2.536-2.316-1.254-2e-3 -0.013 2.602-0.338 0.471-2.489 0.023-3e-3 1.08 2.285z" fill="#fff"/>
	<path d="m106.54 45.344l2.562-0.393 3e-3 0.017-1.84 1.818 1.164 2.269-0.015 0.012-2.263-1.161-1.812 1.794-0.023-0.012 0.451-2.514-2.309-1.176-2e-3 -0.021 2.554-0.392 0.413-2.464 0.018-5e-3 1.11 2.228z" fill="#fff"/>
	<polygon points="128.25 47.347 129.39 49.556 129.37 49.58 127.16 48.436 125.4 50.193 125.37 50.175 125.81 47.725 123.56 46.575 123.56 46.559 126.05 46.171" fill="#fff"/>
	<polygon points="115.94 40.943 117.06 43.149 117.06 43.174 114.85 42.034 113.08 43.787 113.05 43.774 113.5 41.32 111.24 40.17 111.24 40.156 113.73 39.769" fill="#fff"/>
	<path d="m93.552 38.25l2.456-0.383 2e-3 0.019-1.762 1.744 1.112 2.165-0.011 0.018-2.166-1.116-1.739 1.723-0.019-0.015 0.431-2.407-2.211-1.127v-0.016l2.445-0.381 0.398-2.355 0.011-3e-3 1.053 2.134z" fill="#fff"/>
	<polygon points="100.66 33.307 101.8 35.513 101.78 35.533 99.572 34.399 97.803 36.151 97.78 36.136 98.223 33.685 95.968 32.539 95.967 32.519 98.46 32.131" fill="#fff"/>
	<path d="m129.04 23.164l2.645-0.172v0.017l-2.033 1.682 0.971 2.405-0.014 0.016-2.192-1.389-2.005 1.66-0.013-0.022 0.686-2.504-2.238-1.404-1e-3 -0.02 2.626-0.167 0.643-2.465h0.017l0.89 2.363z" fill="#fff"/>
	<path d="m110.33 23.164l2.638-0.172v0.017l-2.034 1.682 0.977 2.405-0.022 0.016-2.187-1.389-2.009 1.66-0.017-0.022 0.684-2.504-2.233-1.404v-0.02l2.626-0.167 0.643-2.465h0.019l0.91 2.363z" fill="#fff"/>
	<polygon points="84.988 22.137 84.984 22.124 87.589 21.766 88.057 19.264 88.083 19.263 89.158 21.56 91.772 21.208 91.773 21.225 89.868 23.04 91 25.368 90.988 25.391" fill="#fff"/>
	<path d="m120.63 31.814l2.282-0.155v0.012l-1.755 1.553 0.84 2.213-0.011 0.015-1.898-1.277-1.736 1.532-0.01-0.02 0.59-2.313-1.93-1.296v-0.017l2.268-0.153 0.559-2.268 0.017-7e-3 0.78 2.181z" fill="#fff"/>
	<polygon points="128.32 42.362 128.32 42.354 130.2 41.938 130.39 40.089 130.4 40.087 131.32 41.69 133.2 41.275 133.21 41.291 131.93 42.722 132.9 44.348 132.88 44.36" fill="#fff"/>
	<path d="m347.7 186.18c-21.187-1.481-26.6-2.213-38.928 0.738-12.308 2.959-22.167 7.145-32.271 4.19-8.585-2.512-12.806-5.419-25.861-5.419-13.062 0-16.259 7.39-33.996 5.419-17.74-1.967-32.744-2.141-40.893-0.242-10.592 2.458-24.143 1.727-28.088 0.979-6.361-1.191-21.675-2.705-28.818 1.233-8.618 4.758-15.768 2.464-21.436 0.984-5.661-1.47-14.038-3.935-25.369-0.242-10.889 3.55-36.711 5.915-43.361 5.915l0.616-16.02c10.593 0.74 35.597-0.49 46.933-4.188 11.329-3.692 22.909-1.721 28.576-0.242 5.663 1.479 12.81 3.767 21.426-0.987 7.15-3.939 21.963-2.43 28.335-1.229 3.94 0.737 12.562 1.229 23.154-1.233 8.148-1.892 15.219-2.511 32.762 0.737 19.956 3.696 22.666-5.168 35.722-5.168 13.062 0 17.773 2.879 26.356 5.418 10.842 3.202 19.334-2.823 31.781-5.167 13.062-2.473 20.207 0 44.103 3.196 5.421 0.743 5.663-4.923 10.591-4.923 6.894 0 10.097 0.242 16.255 3.199 0.123 1.662 0.376 4.248 0.553 6.22 0.172 1.802 0.498 4.07 0.454 5.48h-2.486c-5.301-0.681-11.756-0.897-17.484-1.111-4.92-0.19-3.19 3.18-8.61 2.45z" fill="#A01F24"/>
	<path d="m376.3 184.82c-3e-3 0.132-8e-3 0.259-0.019 0.368-0.785-0.133-1.607-0.252-2.468-0.368h2.49z" fill="#1C1618"/>
	<path d="m365.13 149.14c-5.046-0.644-16.78-4.901-30.827-5.237-14.034-0.334-21.432 0.365-29.573 2.782-8.145 2.414-21.727 8.243-30.092 5.977s-18.675-8.24-29.761-7.57c-11.093 0.674-24.399 2.316-28.591 2.29-4.193-0.02-13.03-4.753-19.199-3.066-6.167 1.683-17.554 6.203-29.583 3.77-15.009-3.048-17.903-2.832-24.628-1.141-7.648 1.927-21.047 6.46-27.135 5.258-6.394-1.272-17.953-4.541-23.125-4.57-5.172-0.034-10.853 1.908-18.254 4.323-7.411 2.418-13.19 0.976-17.982-1.092-8.107-3.493-17.734-0.106-25.635 2.311l-1.076 15.506c4.194-1.196 12.352-5.835 19.988-5.788 7.632 0.051 13.283 3.532 19.193 3.571 8.872 0.045 19.755-7.276 29.852-7.217 11.333 0.067 18.705 4.55 28.306 4.604 9.61 0.059 12.609-8.05 23.699-7.988 8.131 0.047 21.401 5.054 28.049 5.097 6.656 0.039 16.027-1.878 27.623-5.011 2.962-1.214 5.413 0.28 7.635 0.537 2.215 0.265 16.014-0.64 20.944-1.102 4.934-0.465 13.812-2.133 20.712-2.582 6.903-0.454 9.104 2.022 13.529 3.277 4.426 1.255 11.309 4.741 18.938 5.043 7.393 0.29 15.76 1.075 22.91-0.851 7.048-1.898 16.299-6.059 24.439-7.738 8.14-1.67 20.649-2.832 30.617-1.425l-0.98-1.96z" fill="#A01F24"/>
	<path d="m243.99 119.78c3.32 1.382 9.729 3.82 14.29 3.572 4.674-0.24 14.063-3.382 21.922-4.178 9.604-0.994 40.651-1.073 55.303 3.502 14.583 4.555 17.363 6.16 21.68 9.057l2.342 4.926c-5.662 0.247-14.042-7.39-22.665-9.612-4.973-1.266-14.184-1.357-22.103-0.859-2.989 0.19-6.021 0.467-8.694 0.859-10.987 1.621-23.892 7.884-32.026 7.884-8.124 0-6.788-1.446-16.255-6.405-1.955-1.02-5.587-3.878-7.891-4.43-9.859-2.37-20.974 1.168-32.755 1.968-0.561 0.039-1.125 0.086-1.685 0.124-14.012 1.103-28.314 4.083-33.049 4.553-4.93 0.501-16.509-2.215-18.231-2.706-1.723-0.492-3.453-1.234-4.683-0.737-3.445 0.737-18.232 5.418-21.924 5.418-3.697 0-9.606-1.976-15.767 0.242-6.158 2.221-13.795-0.738-18.476-1.967-4.677-1.229-7.39-4.19-16.012-0.492-8.62 3.693-14.537 4.189-21.678 2.955-7.145-1.234-9.368-2.213-17.493 0-8.13 2.213-13.052 0.981-16.5 0.246-0.187-4.224-0.425-9.612-0.496-11.33 6.401 1.265 11.758-1.516 18.97-2.218 7.637-0.742 12.556 2.011 15.764 2.463 3.447 0.497 5.913 1.231 11.826-0.245 5.913-1.475 9.854-2.218 15.025-0.986 5.175 1.231 10.104 2.463 13.057 2.216 2.958-0.248 4.436-2.216 8.622-1.725 4.19 0.496 8.133 0.741 12.565 0.245 4.434-0.486 10.838-2.458 15.519-3.451 4.682-0.984 12.32 1.277 21.681 1.484 11.083 0.247 24.88-4.435 33.501-4.435 8.004 0 30.178-2.586 40.526 1.11 1.84 0.64 2.82 1.86 5.78 2.97z" fill="#A01F24"/>
	<path d="m349.8 90.964c-2.829 0.492-12.071 1.357-16.993 1.728-4.93 0.367-21.069 1.84-22.916 0.495 0 0-1.603-0.866-2.952-1.607-1.357-0.739-11.705-4.435-16.882-5.415-5.171-0.988-18.223 0-24.878 0.736-10.31 1.14-14.283 0-24.629 1.967-9.524 1.811-24.642 2.469-31.049 2.711l-1.351 0.248s-3.449-2.831-4.805-2.216c-2.366 1.071-11.085 0.984-24.634-0.988-11.648-1.698-18.191-0.658-22.933 0.762l3.11 14.395c5.694-1.28 17.656-3.968 25.739-4.319 8.992-0.389 27.054 2.557 33.375 2.094 1.109 0 1.486-0.217 2.099-0.123 0.855 0.137 1.602 1.963 3.569 2.095 4.926 0.246 24 1.352 34.118 1.352 11.823 0 33.022-5.109 43.854-7.385 4.68-0.988 9.234-0.621 11.82 0.614l1.602 0.493c2.093 0.86 12.935 5.541 21.677 6.406 8.748 0.86 11.707 2.09 13.425 2.212-0.12-1.98-0.36-12.938-0.36-16.266z" fill="#A01F24"/>
	<path d="m180.55 73.721c0.983 0.617 1.972 1.109 1.972 1.109 2.838-0.248 10.097 0 17.981 0 7.639 0 24.021 0.38 32.272-2.463 10.716-3.696 19.46-5.545 28.823-6.533 2.343 0.865 15.373 6.458 18.35 7.516 15.523 5.547 36.09 2.954 42.744 0.248 0.986-0.248 2.466-0.862 5.789 0.619 3.327 1.471 10.838 3.629 18.725 2.833-1.047-0.925-3.082-2.282-4.07-2.711-0.982-0.431-3.198-2.771-3.573-4.621-2.087 0.123-6.155 0.555-9.232 1.293-3.078 0.739-5.785 1.967-8.498 0.865-2.708-1.109-13.431-4.928-25.127-5.177-11.706-0.248-27.839 1.357-33.506-1.234-1.479-0.611-2.591-1.225-4.434-2.46-1.851-1.232-6.161-2.095-6.161-2.095-1.718-0.249-8.134-1.1-17.981-1.352-14.283-0.374-54.4 4.918-63.787 7.141-0.403-0.281-2.296-1.476-3.339-1.476-1.947 0-12.102 0.563-16.997 1.451l2.549 10.573c5.5-1.335 18.76-4.058 27.51-3.526z" fill="#A01F24"/>
	<path d="m148.29 43.822c0.136 2.286 0.088 7.472 0.042 10.753 1.424-0.462 2.332-0.81 4.022-1.177 2.216-0.497 1.23 1.227 2.709 1.227 1.476 0 7.986-3.539 15.516-4.674 10.248-1.548 43.713-8.874 57.521-7.146 2.216 0.489 4.313 0.981 4.313 0.981 4.311 0.739 33.994 6.649 44.091 9.365 10.104 2.71 25.377 2.462 38.927 1.721 13.55-0.738 23.4-2.71 25.87-2.215 0.241-2.222 0.487-5.913 0.487-6.533-2.827-0.735-10.225-2.089-18.104-1.716-7.879 0.364-19.587 3.567-25.744 3.567-6.159 0-18.971-0.741-24.635-0.988-5.668-0.244-20.446-2.463-26.853-3.938-6.402-1.482-23.895-4.934-28.331-6.528-1.318-0.477-32.269-1.11-42.863-0.865-9.564 0.222-23.909 1.452-32.057 3.13 2.13 1.095 4.94 2.908 5.07 5.036z" fill="#A01F24"/>
	<path d="m164.17 22.355c7.388 0.988 25.369 3.695 34.978 6.653 9.612 2.958 26.606 7.144 39.915 9.852 13.296 2.708 36.946 8.376 56.162 6.897 19.211-1.477 38.427-7.64 45.328-6.4l0.49 0.984c-1.233-4.432-5.169-3.451-5.169-3.451-7.638 1.227-38.675 6.404-46.558 6.896-7.888 0.494-16.97-1.447-25.375-2.707-19.714-2.963-56.174-14.041-73.662-17.248-17.488-3.202-18.473-2.216-22.172-2.462-3.692-0.248-6.898-0.982-12.316-1.97-4.986-0.908-15.491-0.771-20.404-0.747l1.318 4.097c6.02-0.36 20.77-1.285 27.46-0.394z" fill="#A01F24"/>
	</svg>